<svg xmlns="http://www.w3.org/2000/svg" xmlns:xlink="http://www.w3.org/1999/xlink" width="500" zoomAndPan="magnify" viewBox="0 0 375 225" height="300" preserveAspectRatio="xMidYMid meet" version="1.2"><defs><clipPath id="dbb8322496"><path d="M 22.5 205 L 348.75 205 L 348.75 225 L 22.5 225 Z M 22.5 205 "/></clipPath></defs><g id="1bf291bf86"><path style=" stroke:none;fill-rule:evenodd;fill:#d7b236;fill-opacity:1;" d="M 185.539062 0 C 142.695312 0 104.511719 19.929688 79.734375 51.011719 C 87.183594 52.359375 90.175781 56.394531 88.710938 63.132812 C 90.386719 67.386719 93.148438 68.835938 96.988281 67.488281 C 104.695312 61.726562 109.054688 62.015625 110.058594 68.359375 C 115.765625 67.585938 119.101562 68.457031 120.078125 70.976562 C 122.425781 73.527344 124.140625 72.777344 127.3125 73.132812 C 188.882812 75.519531 195.777344 78.535156 118.773438 77.515625 L 63.847656 76.1875 C 62.382812 79.199219 61.027344 82.273438 59.785156 85.402344 C 60.367188 85.46875 61.007812 85.378906 61.703125 85.132812 C 66.335938 81.671875 68.949219 81.847656 69.554688 85.65625 C 72.984375 85.191406 74.988281 85.714844 75.574219 87.230469 C 76.730469 88.484375 78.777344 88.835938 80.5 88.894531 C 156.480469 91.625 148.316406 93.464844 56.824219 93.667969 C 52.597656 106.761719 50.308594 120.730469 50.308594 135.234375 C 50.308594 138.101562 50.398438 140.949219 50.574219 143.773438 C 54.800781 143.09375 62.25 142.421875 70.472656 141.839844 C 79.910156 141.167969 90.660156 140.609375 98.554688 140.308594 L 99.636719 138.429688 L 99.871094 138.011719 C 101.109375 135.964844 102.9375 134.503906 105.003906 133.515625 C 107.042969 132.535156 109.308594 132.015625 111.339844 131.859375 L 111.523438 131.859375 C 115.382812 131.671875 118.679688 131.5625 120.765625 131.503906 C 129.519531 122.660156 132.816406 119.066406 132.824219 119.058594 L 133.007812 118.847656 C 136.355469 115.605469 140.488281 113.089844 145.269531 111.234375 C 150.027344 109.382812 155.433594 108.183594 161.355469 107.542969 L 161.425781 107.542969 C 171.261719 106.582031 185.984375 105.882812 201.769531 105.617188 C 216.398438 105.367188 231.898438 105.492188 245.230469 106.117188 C 251.84375 106.433594 259.011719 106.921875 266.042969 108.375 C 273.441406 109.898438 280.59375 112.480469 286.671875 116.976562 C 289.789062 119.28125 293.269531 122.015625 297.140625 125.515625 C 300.722656 128.757812 304.550781 132.574219 308.585938 137.191406 C 314.269531 139.585938 317.882812 141.0625 319.484375 141.707031 L 320.617188 141.71875 C 320.71875 139.570312 320.773438 137.417969 320.773438 135.246094 C 320.773438 107.476562 312.40625 81.667969 298.054688 60.195312 C 272.027344 60.238281 247.980469 60.453125 231.464844 60.410156 C 187.109375 60.300781 220.625 57.679688 246.035156 56.59375 C 249.167969 56.460938 252.007812 56.621094 254.292969 54.140625 C 254.878906 52.625 256.882812 52.101562 260.3125 52.570312 C 260.917969 48.757812 263.53125 48.585938 268.164062 52.042969 C 270.472656 52.851562 272.132812 51.976562 273.136719 49.425781 C 271.988281 44.148438 275.394531 41.628906 283.347656 41.859375 C 258.71875 16.078125 224.003906 0.015625 185.539062 0.015625 Z M 185.539062 0 "/><g clip-rule="nonzero" clip-path="url(#dbb8322496)"><path style=" stroke:none;fill-rule:evenodd;fill:#333;fill-opacity:1;" d="M 348.550781 225 L 22.53125 225 C 31.398438 221.296875 43.464844 218 57.777344 215.179688 C 61.289062 218.242188 65.394531 220.144531 70.085938 220.878906 L 84.574219 210.777344 C 103.671875 208.175781 125.042969 206.25 147.242188 205.101562 L 240.792969 205.015625 C 253.957031 205.730469 266.699219 206.773438 278.699219 208.171875 C 281.636719 208.511719 286.597656 206.457031 289.4375 206.835938 C 291.992188 207.183594 292.421875 209.96875 294.886719 210.347656 C 300.167969 211.164062 305.257812 212.058594 310.113281 213.035156 L 314.84375 218.441406 C 317.746094 217.972656 320.0625 217.050781 321.910156 215.691406 C 332.347656 218.316406 341.371094 221.410156 348.554688 224.996094 Z M 348.550781 225 "/></g><path style=" stroke:none;fill-rule:evenodd;fill:#333;fill-opacity:1;" d="M 324.730469 194.089844 C 324.199219 205.332031 323.433594 218.367188 312.554688 219.039062 C 305.519531 219.46875 300.640625 219.28125 296.90625 218.941406 C 291.460938 218.445312 288.875 216.527344 286.898438 211.132812 C 286.898438 211.132812 286.398438 211.320312 285.398438 211.695312 C 285.398438 211.695312 272.535156 213.441406 244.757812 216.9375 C 240.835938 221.511719 236.8125 222.535156 231.183594 222.667969 C 223.230469 222.859375 217.191406 222.859375 212.929688 222.550781 C 206.476562 222.078125 202.515625 220.671875 198.3125 215.347656 C 198.3125 215.347656 197.253906 215.691406 195.132812 216.375 C 177.410156 217.3125 151.628906 217.4375 117.792969 216.75 C 116.378906 216.5 114.441406 215.785156 111.992188 214.59375 C 106.238281 221.671875 96.152344 224.589844 81.75 223.347656 C 68.667969 222.222656 60.398438 218.800781 55.066406 204.664062 C 51.507812 201.449219 46.082031 195.207031 42.984375 191.273438 C 33.324219 186.71875 30.078125 168.910156 35.28125 160.28125 C 38.542969 154.878906 44.804688 150.847656 50.953125 149.765625 C 59.902344 148.195312 88.328125 146.582031 102.066406 146.140625 C 104.1875 142.457031 104.96875 141.082031 104.96875 141.082031 C 106.242188 138.976562 109.222656 138.007812 111.800781 137.804688 C 119.023438 137.460938 123.316406 137.386719 123.316406 137.386719 C 133.054688 127.585938 137.171875 123.109375 137.171875 123.109375 C 142.820312 117.636719 151.402344 114.609375 161.984375 113.464844 C 180.6875 111.640625 217.355469 110.765625 244.945312 112.058594 C 257.703125 112.671875 272.53125 113.929688 283.109375 121.753906 C 289.160156 126.226562 296.507812 132.265625 304.960938 142.117188 C 314.261719 146.050781 318.257812 147.640625 318.257812 147.640625 C 324.625 147.699219 327.804688 147.734375 327.804688 147.734375 C 329.140625 147.878906 329.105469 148.691406 329.398438 152.976562 C 332.773438 157.496094 334.335938 160.679688 334.828125 162.902344 C 337.414062 173.113281 333.765625 185.53125 324.71875 194.082031 Z M 324.730469 194.089844 "/><path style=" stroke:none;fill-rule:evenodd;fill:#ffffff;fill-opacity:1;" d="M 297.613281 168.84375 C 296.632812 167.691406 296.121094 166.433594 295.433594 166.402344 C 283.605469 165.824219 272.585938 165.273438 261.101562 164.753906 C 260.382812 161.390625 258.695312 157.574219 256.976562 154.707031 C 257.996094 158.15625 258.808594 164.101562 259.234375 167.320312 C 258.15625 166.539062 257.734375 164.632812 257.035156 164.601562 C 245.828125 164.097656 234.824219 163.617188 224.019531 163.167969 C 216.371094 162.847656 204.78125 164.589844 201.355469 165.855469 C 201.476562 169.230469 201.101562 171.917969 200.792969 173.90625 C 203.707031 174.066406 205.980469 173.917969 206.105469 176.972656 C 206.320312 182.179688 205.96875 188.984375 205.195312 194.226562 C 206.699219 192.789062 207.914062 190.390625 207.914062 190.390625 C 213.03125 190.765625 214.5625 190.949219 214.5625 190.949219 C 213.082031 194.957031 211.160156 198.785156 208.792969 202.429688 C 206.347656 206.195312 203.875 206.453125 199.882812 205.464844 C 196.09375 204.53125 192.511719 204.375 188.648438 205.359375 C 183.011719 206.800781 173.371094 210.023438 167.371094 209.957031 C 142.199219 210.199219 114.582031 209.386719 84.503906 207.523438 C 77.648438 206.875 76.445312 204.785156 66.054688 204.144531 C 60.28125 203.789062 55.273438 198.363281 48.640625 192.074219 C 53.523438 197.5625 57.382812 201.542969 60.21875 204.003906 C 64.074219 207.355469 70.4375 206.207031 76.265625 208.175781 C 79.027344 209.242188 82.863281 210.148438 85.535156 210.144531 C 90.339844 210.382812 94.984375 210.605469 99.460938 210.808594 C 97.195312 213.542969 93.722656 215 89.71875 215.164062 C 95.351562 216 99.257812 214.398438 101.964844 210.917969 C 132.027344 212.25 154.453125 212.710938 169.242188 212.300781 C 173.273438 212.132812 175.730469 211.765625 178.925781 210.839844 C 185.0625 209.066406 191.984375 206.238281 199.300781 208.273438 C 204.007812 209.226562 207.347656 208.351562 209.320312 205.652344 C 211.65625 202.832031 213.984375 199.214844 216.265625 194.792969 C 216.75 204.0625 222.46875 219.976562 234.660156 218.316406 C 251.953125 215.960938 253.769531 176.738281 237.355469 167.703125 C 245.140625 168.761719 249.402344 177.765625 250.703125 186.082031 C 252.121094 183.515625 252.484375 182.851562 253.417969 182.804688 C 286.628906 183.117188 298.457031 183.179688 298.457031 183.179688 C 301.078125 183.820312 299.792969 194.28125 298.273438 198.539062 C 304.3125 191.878906 305.585938 172.171875 314.289062 170.914062 C 310.820312 173.53125 309.78125 182.097656 309.632812 189.890625 C 309.574219 192.890625 309.941406 215.117188 315.652344 214.441406 C 320.824219 213.824219 322.128906 200.890625 321.894531 190.074219 C 321.839844 187.59375 321.679688 185.273438 321.476562 183.210938 C 322.675781 185.335938 323.007812 189 323.085938 190.203125 C 331.609375 181.503906 333.578125 172.546875 331.417969 162.398438 C 330.859375 163.273438 330.574219 163.707031 330.574219 163.707031 C 319.898438 160.644531 314.558594 159.121094 314.558594 159.121094 C 311.519531 158.183594 308.277344 158.996094 304.820312 161.558594 C 300.824219 164.804688 299.011719 166.238281 299.011719 166.238281 C 297.425781 162.382812 295.898438 159.730469 294.800781 157.90625 C 296.46875 162.949219 297.558594 166.097656 297.613281 168.859375 Z M 75.515625 169.457031 C 75.097656 174.929688 72.210938 177.457031 68.535156 177.710938 C 65.089844 177.9375 61.347656 177.097656 59.175781 172.921875 C 58.304688 175.082031 56.789062 176.378906 54.636719 176.808594 C 49.789062 177.058594 46.890625 174.628906 46.109375 171.609375 C 45.40625 168.875 46.476562 165.5625 49.71875 163.976562 C 45.410156 168.71875 47.761719 176.472656 55.613281 175.449219 C 50.8125 174.796875 49.472656 171.960938 49.507812 169.085938 C 49.546875 165.777344 52.117188 163.1875 55.011719 163.253906 C 56.730469 163.292969 58.246094 164.28125 59.367188 166.648438 C 60.21875 164.789062 61.324219 163.683594 62.6875 163.324219 C 58.492188 166.917969 59.007812 176.191406 66.996094 176.574219 C 62.492188 174.46875 61.203125 170.367188 62.6875 166.230469 C 65.097656 160.546875 75.109375 160.472656 75.515625 169.460938 Z M 48.03125 176.664062 C 43.933594 174.191406 42.984375 168.949219 46.160156 164.632812 C 40.722656 167.355469 41.222656 175.464844 48.03125 176.664062 Z M 176.167969 161.214844 C 185.867188 160.804688 186.007812 176.253906 175.75 176.617188 C 171.480469 176.457031 168.90625 174.828125 167.59375 172.40625 C 165.792969 169.089844 166.523438 164.53125 169.992188 162.476562 C 165.617188 166.535156 167.921875 175.953125 175.984375 175.726562 C 172.035156 174.097656 170.007812 171.554688 170.085938 168.09375 C 170.222656 163.992188 172.371094 161.703125 176.171875 161.210938 Z M 193.425781 162.515625 C 199.234375 163.859375 200.632812 174.289062 193.160156 175.773438 C 183.042969 177.785156 182.464844 159.984375 193.425781 162.515625 Z M 182.910156 162.34375 C 183.617188 161.78125 184.242188 161.53125 184.78125 161.59375 C 183.871094 162.898438 183.511719 163.507812 183.707031 163.417969 C 183.175781 162.699219 182.910156 162.34375 182.910156 162.34375 Z M 183.898438 173.90625 C 185.007812 175.292969 186.554688 175.949219 188.535156 175.875 C 186.574219 175.40625 185.136719 174.046875 184.226562 171.800781 C 183.792969 172.597656 183.683594 173.296875 183.898438 173.90625 Z M 166.0625 172.78125 C 165.429688 160.316406 165.113281 159.839844 164.808594 171.402344 C 164.742188 173.886719 163.914062 174.421875 161.503906 174.523438 C 143.265625 175.261719 117.8125 175.421875 85.144531 175.007812 C 81.515625 174.6875 80.636719 173.242188 80.8125 168.195312 C 81.121094 165.464844 81.800781 164.269531 83.667969 164.253906 C 89.101562 164.214844 114.167969 163.933594 159.046875 163.609375 C 160.941406 163.496094 161.472656 163.1875 160.636719 162.671875 C 150.101562 162.332031 124.6875 162.363281 83.929688 162.925781 C 80.011719 162.984375 78.625 164.367188 78.554688 168.449219 C 78.445312 174.421875 80.007812 176.652344 84.417969 176.855469 C 117.523438 177.5625 143.273438 177.46875 161.6875 176.578125 C 163.773438 176.476562 165.914062 175.863281 166.070312 172.78125 Z M 67.800781 202.039062 C 60.617188 203.175781 56.835938 196.21875 62.03125 193.472656 C 60.902344 194.75 60.480469 195.988281 60.765625 197.167969 C 61.546875 197.167969 61.9375 197.167969 61.9375 197.167969 C 62.375 199.847656 64.230469 201.160156 66.804688 201.148438 C 64.003906 199.964844 63.253906 197.3125 64.078125 196.066406 C 65.976562 193.210938 69.121094 194.773438 70.066406 197.597656 C 70.675781 199.421875 70.355469 201.640625 67.796875 202.039062 Z M 185.066406 195.90625 C 187.988281 198.089844 187.457031 203.460938 184.101562 204.414062 C 177.460938 206.3125 170.320312 195.402344 178.042969 194.5 C 177.140625 194.921875 176.425781 195.71875 176.453125 197.027344 C 177.953125 197.027344 178.140625 197.027344 178.140625 197.027344 C 178.453125 200.558594 180.546875 202.679688 183.382812 202.460938 C 177.839844 199.0625 180.785156 192.636719 185.066406 195.90625 Z M 168.589844 194.597656 C 168.59375 193.535156 169.03125 193.035156 169.902344 193.097656 C 169.902344 193.097656 177.925781 192.847656 193.964844 192.34375 C 195.667969 192.300781 197.664062 191.335938 199.960938 189.445312 C 198.617188 190.015625 196.777344 190.417969 194.4375 190.660156 C 194.4375 190.660156 185.824219 190.910156 168.59375 191.410156 C 167.804688 191.335938 167.210938 192.050781 166.816406 193.566406 C 166.359375 195.097656 165.203125 196.03125 163.347656 196.378906 C 147.617188 196.640625 120.277344 196.640625 81.328125 196.378906 C 77.796875 196.121094 76.574219 194.570312 73.972656 192.21875 C 71.308594 189.804688 70.773438 190.125 66.441406 190.105469 C 57.386719 190.222656 51.671875 190.164062 49.300781 189.914062 C 50.152344 191.210938 53.585938 191.832031 59.601562 191.785156 C 65.96875 191.785156 69.152344 191.785156 69.152344 191.785156 C 70.476562 191.914062 71.289062 192.414062 72.332031 193.285156 C 75.480469 196.773438 77.761719 198.519531 80.761719 198.527344 C 109.222656 199.429688 136.875 199.648438 163.71875 199.183594 C 166.433594 198.742188 168.058594 197.210938 168.585938 194.597656 Z M 125.480469 140.070312 C 125.480469 140.070312 132.21875 132.582031 138.265625 126.730469 C 144.730469 120.472656 150.878906 117.683594 159.660156 116.625 C 171.65625 115.1875 199.0625 114.230469 235.03125 114.839844 C 246.878906 115.042969 265.128906 116.070312 275.847656 121.253906 C 282.980469 124.839844 291.71875 132.425781 302.066406 144.007812 C 302.066406 144.007812 307.746094 146.285156 319.105469 150.84375 C 319.105469 150.84375 321.296875 150.8125 325.683594 150.753906 C 326.539062 150.742188 326.339844 151.882812 326.441406 152.847656 C 326.484375 153.292969 325.695312 152.921875 324.914062 153.132812 C 325.613281 153.414062 327.285156 155.394531 328.847656 157.394531 C 321.527344 153.28125 310.125 149.296875 304.652344 147.59375 C 299.160156 145.886719 295.0625 148.25 290.828125 152.058594 C 250.953125 150.042969 222.050781 149.320312 211.613281 151.871094 C 206.421875 153.148438 203.035156 155.613281 200.238281 160.390625 C 200.238281 160.390625 198.429688 159.722656 198.414062 160.488281 C 200.214844 162.796875 200.15625 164.648438 199.820312 168.820312 C 199.714844 163.324219 196.34375 160.761719 191.015625 160.390625 C 139.902344 159.046875 90.6875 159.800781 43.539062 162.3125 C 40.933594 162.503906 39.421875 164.671875 38.859375 166.996094 C 39.597656 166.140625 40.035156 165.984375 40.589844 165.777344 C 39.148438 168.910156 39.804688 174.851562 42.648438 177.0625 C 42.023438 177.089844 40.980469 177.089844 39.984375 176.222656 C 40.882812 178.363281 43.863281 179.363281 47.332031 179.359375 C 57.230469 180.070312 116.632812 180.746094 187.6875 179.78125 C 191.460938 179.730469 196.4375 179.417969 198.457031 176.367188 C 196.292969 181.3125 192.625 182.796875 187.597656 182.855469 C 137.796875 183.441406 92.027344 183.257812 47.332031 182.667969 C 45.21875 182.636719 42.285156 182.257812 40.359375 181.335938 C 40.359375 181.335938 40.792969 182.769531 41.667969 185.640625 C 36.5 179.726562 34.957031 169.261719 38.816406 162.398438 C 41.757812 157.160156 47.578125 154.042969 53.835938 153.183594 C 62.71875 151.957031 89.273438 149.980469 104.355469 149.640625 C 107.074219 144.648438 108.433594 142.152344 108.433594 142.152344 C 109.242188 141.128906 110.363281 140.628906 111.804688 140.652344 C 120.542969 140.277344 125.476562 140.09375 125.476562 140.09375 Z M 135.710938 151.601562 C 133.949219 153.976562 124.519531 155.039062 120.730469 157.96875 C 122.496094 155.289062 124.769531 152.851562 126.816406 151.792969 C 133.433594 151.355469 135.710938 151.605469 135.710938 151.605469 Z M 182.839844 158.054688 C 184.363281 158.039062 188.074219 157.957031 188.273438 157.636719 C 188.589844 157.195312 186.46875 156.871094 186.789062 156.472656 C 189.964844 152.5625 193.800781 150.792969 206.4375 148.734375 C 191.644531 150.191406 184.777344 152.828125 182.839844 158.050781 Z M 59.152344 153.839844 C 75.550781 152.253906 97.082031 151.414062 123.753906 151.3125 C 122.253906 152.257812 120.304688 154.828125 117.996094 158.195312 C 117.449219 157.65625 116.628906 157.25 115.65625 157.273438 C 91.578125 157.90625 71.023438 158.574219 50.863281 159.734375 C 52.589844 156.898438 55.960938 154.375 59.152344 153.839844 Z M 48.335938 159.734375 C 49.566406 157.730469 51.828125 155.609375 54.941406 154.304688 C 50.347656 155.027344 46.027344 157.378906 45.109375 158.890625 C 44.714844 159.539062 44.824219 159.929688 48.335938 159.730469 Z M 155.824219 150.933594 C 159.328125 149.941406 159.953125 148.742188 159.570312 147.980469 C 156.933594 143.988281 154.75 141.957031 153.019531 141.894531 C 148.675781 141.746094 144.113281 141.679688 139.332031 141.683594 L 143.328125 145.214844 C 143.882812 145.75 143.945312 146.160156 143.515625 146.429688 C 143.515625 146.429688 142.675781 147.023438 140.988281 148.210938 C 140.527344 148.710938 140.183594 148.652344 139.957031 148.027344 C 139.957031 148.027344 139.539062 146.464844 138.691406 143.34375 C 138.4375 142.601562 138.136719 142.046875 137.792969 141.6875 C 132.972656 141.707031 127.933594 141.804688 122.675781 141.972656 C 123.570312 143.34375 124.039062 144.472656 124.085938 145.355469 C 124.066406 146.566406 123.675781 147.53125 122.914062 148.257812 C 122.265625 148.5 121.910156 148.347656 121.839844 147.785156 C 121.839844 147.785156 121.855469 146.003906 121.882812 142.449219 C 121.898438 142.277344 121.914062 142.128906 121.933594 141.992188 C 119.003906 142.09375 116.007812 142.214844 112.945312 142.351562 C 111.234375 142.332031 110.085938 142.878906 109.480469 143.992188 C 109.480469 143.992188 108.542969 145.738281 106.296875 149.613281 C 115.972656 149.527344 132.484375 149.230469 155.550781 149.488281 C 156.042969 149.492188 156.03125 150.601562 155.828125 150.921875 Z M 292.921875 142.667969 C 293.769531 142.207031 294.636719 142.324219 297.953125 142.878906 C 290.09375 134.425781 282.761719 128.453125 276.394531 124.800781 C 271.066406 121.742188 263.453125 120.789062 257.460938 120.167969 C 255.160156 120.007812 254.039062 120.980469 254.089844 123.070312 C 255.023438 131.535156 255.753906 139.953125 255.984375 146.640625 C 262.382812 147.015625 265.582031 147.199219 265.582031 147.199219 C 265.332031 148.449219 265.304688 148.921875 265.488281 148.605469 C 267.234375 146.859375 268.109375 145.984375 268.109375 145.984375 C 264.828125 142.9375 266.769531 138.070312 271.15625 138.195312 C 274.949219 138.304688 277.4375 140.96875 276.722656 144.019531 C 276.164062 146.09375 273.882812 147.5 271.011719 147.109375 C 270.414062 147.285156 269.554688 147.902344 270.402344 148.046875 C 279.484375 148.515625 284.308594 148.746094 284.308594 148.746094 C 280.375 139.710938 275.816406 131.910156 270.636719 125.339844 C 277.515625 132.519531 282.816406 140.136719 286.554688 148.1875 C 290.984375 144.3125 292.921875 142.664062 292.921875 142.664062 Z M 251.171875 129.238281 C 251.628906 133.695312 251.976562 139.101562 252.210938 145.453125 C 238.320312 143.785156 217.566406 142.878906 189.945312 142.738281 C 189.945312 142.738281 190.070312 143.421875 190.320312 144.800781 C 187.433594 141.40625 178.195312 139.535156 162.601562 139.183594 C 162.601562 139.183594 151.175781 139.433594 128.332031 139.933594 C 137.132812 131.378906 141.535156 127.105469 141.535156 127.105469 C 145.566406 123.375 150.621094 121.34375 155.300781 120.832031 C 174.757812 119.074219 204.65625 118.261719 242.847656 119.804688 C 249.351562 120.109375 250.636719 124.011719 251.171875 129.242188 Z M 217.722656 191.835938 C 219.054688 189.027344 220.367188 185.9375 221.652344 182.566406 C 222.25 181.011719 222.90625 179.441406 223.625 177.933594 C 223.925781 182.703125 223.199219 185.953125 221.433594 187.699219 C 221.042969 189.183594 221.074219 189.871094 221.527344 189.757812 C 223.398438 189.324219 224.339844 189.105469 224.339844 189.105469 C 222.378906 190.308594 221.605469 191.335938 222.371094 194.367188 C 222.695312 195.660156 223.921875 195.976562 226.304688 196.128906 C 223.71875 197.152344 221.785156 196.96875 220.875 195.566406 C 219.875 196.886719 219.222656 197.828125 218.847656 198.394531 C 218.332031 196.238281 217.953125 194.027344 217.726562 191.839844 Z M 225.796875 173.980469 C 226.769531 172.460938 227.835938 171.121094 229.007812 170.074219 C 232.625 172.738281 233.59375 175.832031 231.917969 179.363281 C 231.917969 179.363281 230.417969 181.207031 227.421875 184.886719 C 226.566406 185.097656 226.035156 184.753906 225.832031 183.855469 C 225.980469 179.945312 225.972656 176.652344 225.796875 173.976562 Z M 231.296875 168.503906 C 231.847656 168.234375 232.414062 168.035156 233 167.90625 L 233.132812 167.878906 C 244.335938 173.921875 245.382812 206.296875 234.859375 213.214844 C 238.9375 212.855469 242.058594 209.421875 244.503906 205.726562 C 240.433594 215.714844 234.410156 216.835938 230.597656 215.941406 C 228.933594 215.550781 227.386719 214.566406 225.976562 213.144531 C 226.390625 210.449219 226.4375 207.207031 226.105469 203.429688 C 225.78125 201.988281 226.765625 201.363281 227.511719 201.839844 C 231.476562 204.480469 232.972656 207.726562 232.003906 211.578125 C 230.941406 213.324219 230.414062 214.199219 230.414062 214.199219 C 242.3125 206.355469 240.890625 177.6875 231.292969 168.503906 Z M 318.925781 178.175781 C 316.851562 174.792969 315.289062 175.261719 314.246094 178.078125 C 316.246094 185.789062 316.929688 195.902344 315.460938 207.292969 C 316.679688 207.78125 317.960938 206.75 319.296875 204.199219 C 318.441406 208.824219 317.222656 211.253906 315.644531 211.503906 C 312.988281 210.6875 311.367188 199.054688 311.960938 184.628906 C 312.132812 180.363281 313.53125 174.003906 315.53125 173.503906 C 316.535156 173.253906 318.183594 174.402344 318.921875 178.175781 Z M 219.277344 200.082031 C 220.285156 203.714844 221.683594 207.105469 223.394531 209.828125 C 223.636719 204.160156 222.667969 200.367188 220.492188 198.464844 Z M 233.695312 183.015625 C 236.074219 181.550781 236.949219 183.296875 236.316406 188.257812 C 235.769531 190.71875 233.117188 191.875 230.53125 191.804688 C 229.4375 191.773438 228.808594 190.875 229.292969 189.199219 C 229.292969 189.199219 230.757812 187.136719 233.695312 183.019531 Z M 229.65625 197.777344 C 231.796875 200.355469 233.828125 202.621094 234.914062 205.488281 C 235.773438 203.40625 236.242188 201.0625 236.320312 199.214844 C 236.425781 198.007812 234.96875 196.742188 231.953125 195.421875 C 230.03125 194.582031 228.21875 196.039062 229.664062 197.777344 Z M 255.617188 201.429688 C 256.820312 193.441406 256.304688 192.378906 255.292969 196.5625 C 253.917969 201.554688 253.234375 204.050781 253.234375 204.050781 C 274.769531 203.242188 285.539062 202.835938 285.539062 202.835938 C 290.03125 202.199219 292.429688 194.980469 294.054688 191.320312 C 290.976562 197.101562 288.507812 199.945312 285.347656 200.773438 C 265.558594 201.460938 255.617188 201.429688 255.617188 201.429688 Z M 255.617188 201.429688 "/><path style=" stroke:none;fill-rule:evenodd;fill:#333;fill-opacity:1;" d="M 161.921875 145.179688 C 178.761719 143.804688 186.9375 143.972656 189.542969 146.253906 C 185.0625 145.980469 171.339844 146.730469 161.738281 148.03125 C 160.800781 146.339844 159.226562 144.59375 157.570312 142.695312 C 158.785156 143.039062 161.921875 145.175781 161.921875 145.175781 Z M 161.921875 145.179688 "/><path style=" stroke:none;fill-rule:evenodd;fill:#ffffff;fill-opacity:1;" d="M 201.148438 130.046875 C 201.074219 128.402344 200.609375 127.1875 200.121094 125.835938 C 214.789062 125.832031 229.148438 126.082031 243.1875 126.585938 C 245.125 126.644531 245.78125 127.441406 245.714844 127.941406 C 244.347656 129.425781 243.730469 131.003906 243.277344 133.699219 C 238.796875 133.65625 235.84375 133.628906 234.429688 133.613281 C 232.0625 133.59375 230.027344 134.695312 228.953125 136.878906 C 215.964844 136.878906 209.480469 136.878906 209.480469 136.878906 C 209.089844 132.078125 208.023438 131.152344 201.144531 130.046875 Z M 159.765625 135.992188 C 146.664062 136.371094 138.59375 136.726562 135.886719 136.886719 C 138.203125 134.691406 139.808594 133.179688 140.902344 132.160156 C 145.796875 127.597656 151.332031 126.199219 157.796875 125.460938 C 170.589844 125.179688 177.554688 124.992188 177.554688 124.992188 C 170.453125 125.929688 170.007812 126.324219 165.835938 131.136719 C 163.652344 133.660156 162.773438 135.902344 159.765625 135.984375 Z M 159.765625 135.992188 "/></g></svg>