<svg xmlns="http://www.w3.org/2000/svg" xmlns:xlink="http://www.w3.org/1999/xlink" width="200" zoomAndPan="magnify" viewBox="0 0 150 67.499998" height="90" preserveAspectRatio="xMidYMid meet" version="1.2"><defs><clipPath id="2bcb7f0dc3"><path d="M 26.445312 61 L 123.230469 61 L 123.230469 67.003906 L 26.445312 67.003906 Z M 26.445312 61 "/></clipPath></defs><g id="e2f9d6e558"><path style=" stroke:none;fill-rule:evenodd;fill:#d9d9d9;fill-opacity:1;" d="M 74.992188 0 C 62.234375 0 50.863281 5.933594 43.488281 15.191406 C 45.703125 15.59375 46.59375 16.792969 46.160156 18.800781 C 46.65625 20.066406 47.480469 20.5 48.625 20.097656 C 50.917969 18.382812 52.21875 18.46875 52.515625 20.355469 C 54.214844 20.125 55.210938 20.386719 55.5 21.136719 C 56.199219 21.894531 56.710938 21.671875 57.65625 21.777344 C 75.992188 22.488281 78.042969 23.386719 55.113281 23.082031 L 38.753906 22.6875 C 38.320312 23.585938 37.914062 24.5 37.546875 25.433594 C 37.71875 25.453125 37.910156 25.425781 38.117188 25.351562 C 39.496094 24.320312 40.273438 24.375 40.457031 25.507812 C 41.476562 25.371094 42.074219 25.523438 42.246094 25.976562 C 42.589844 26.351562 43.199219 26.453125 43.714844 26.472656 C 66.339844 27.285156 63.910156 27.832031 36.664062 27.894531 C 35.40625 31.792969 34.722656 35.953125 34.722656 40.273438 C 34.722656 41.125 34.75 41.972656 34.800781 42.816406 C 36.0625 42.613281 38.277344 42.414062 40.726562 42.238281 C 43.539062 42.039062 46.738281 41.871094 49.089844 41.78125 L 49.414062 41.222656 L 49.480469 41.097656 C 49.851562 40.488281 50.394531 40.054688 51.011719 39.761719 C 51.617188 39.46875 52.292969 39.3125 52.898438 39.265625 L 52.953125 39.265625 C 54.101562 39.210938 55.082031 39.179688 55.703125 39.160156 C 58.3125 36.527344 59.292969 35.457031 59.296875 35.453125 L 59.351562 35.390625 C 60.347656 34.425781 61.578125 33.675781 63.003906 33.125 C 64.417969 32.574219 66.027344 32.214844 67.792969 32.027344 L 67.8125 32.027344 C 70.742188 31.738281 75.125 31.53125 79.828125 31.453125 C 84.183594 31.378906 88.800781 31.414062 92.769531 31.601562 C 94.738281 31.695312 96.875 31.839844 98.96875 32.273438 C 101.171875 32.726562 103.300781 33.496094 105.109375 34.835938 C 106.039062 35.523438 107.074219 36.335938 108.230469 37.378906 C 109.296875 38.34375 110.433594 39.480469 111.636719 40.855469 C 113.328125 41.566406 114.40625 42.007812 114.882812 42.199219 L 115.21875 42.203125 C 115.25 41.5625 115.265625 40.921875 115.265625 40.273438 C 115.265625 32.007812 112.773438 24.320312 108.5 17.925781 C 100.75 17.9375 93.589844 18.003906 88.671875 17.992188 C 75.460938 17.957031 85.441406 17.175781 93.007812 16.855469 C 93.941406 16.8125 94.789062 16.859375 95.46875 16.121094 C 95.644531 15.671875 96.242188 15.515625 97.261719 15.65625 C 97.441406 14.519531 98.21875 14.46875 99.597656 15.5 C 100.285156 15.738281 100.78125 15.480469 101.082031 14.71875 C 100.738281 13.148438 101.753906 12.398438 104.121094 12.464844 C 96.785156 4.789062 86.449219 0.00390625 74.992188 0.00390625 Z M 74.992188 0 "/><g clip-rule="nonzero" clip-path="url(#2bcb7f0dc3)"><path style=" stroke:none;fill-rule:evenodd;fill:#000000;fill-opacity:1;" d="M 123.539062 67.003906 L 26.449219 67.003906 C 29.09375 65.902344 32.683594 64.917969 36.945312 64.078125 C 37.992188 64.992188 39.214844 65.558594 40.613281 65.777344 L 44.925781 62.769531 C 50.613281 61.992188 56.976562 61.421875 63.589844 61.078125 L 91.449219 61.050781 C 95.367188 61.265625 99.164062 61.574219 102.738281 61.992188 C 103.609375 62.09375 105.089844 61.480469 105.933594 61.59375 C 106.695312 61.699219 106.824219 62.527344 107.558594 62.640625 C 109.128906 62.882812 110.644531 63.148438 112.089844 63.441406 L 113.5 65.050781 C 114.363281 64.910156 115.054688 64.636719 115.605469 64.230469 C 118.714844 65.011719 121.398438 65.933594 123.539062 67.003906 Z M 123.539062 67.003906 "/></g><path style=" stroke:none;fill-rule:evenodd;fill:#000000;fill-opacity:1;" d="M 116.445312 57.800781 C 116.285156 61.144531 116.058594 65.027344 112.820312 65.226562 C 110.722656 65.355469 109.269531 65.300781 108.160156 65.199219 C 106.535156 65.050781 105.765625 64.480469 105.179688 62.875 C 105.179688 62.875 105.027344 62.929688 104.730469 63.042969 C 104.730469 63.042969 100.902344 63.5625 92.628906 64.601562 C 91.460938 65.964844 90.261719 66.269531 88.585938 66.308594 C 86.21875 66.367188 84.421875 66.367188 83.152344 66.273438 C 81.230469 66.132812 80.050781 65.714844 78.796875 64.128906 C 78.796875 64.128906 78.484375 64.230469 77.851562 64.4375 C 72.574219 64.714844 64.894531 64.75 54.820312 64.546875 C 54.398438 64.472656 53.820312 64.261719 53.089844 63.90625 C 51.378906 66.011719 48.375 66.882812 44.085938 66.511719 C 40.191406 66.175781 37.726562 65.15625 36.140625 60.949219 C 35.082031 59.992188 33.464844 58.132812 32.542969 56.960938 C 29.664062 55.605469 28.699219 50.300781 30.25 47.730469 C 31.21875 46.121094 33.085938 44.921875 34.914062 44.597656 C 37.582031 44.132812 46.046875 43.652344 50.136719 43.519531 C 50.769531 42.421875 51 42.011719 51 42.011719 C 51.378906 41.386719 52.269531 41.097656 53.035156 41.039062 C 55.1875 40.933594 56.464844 40.914062 56.464844 40.914062 C 59.363281 37.996094 60.589844 36.660156 60.589844 36.660156 C 62.273438 35.03125 64.828125 34.128906 67.980469 33.789062 C 73.546875 33.246094 84.46875 32.984375 92.683594 33.371094 C 96.484375 33.550781 100.898438 33.929688 104.050781 36.257812 C 105.851562 37.589844 108.039062 39.386719 110.558594 42.320312 C 113.328125 43.492188 114.515625 43.964844 114.515625 43.964844 C 116.414062 43.984375 117.359375 43.996094 117.359375 43.996094 C 117.757812 44.039062 117.746094 44.28125 117.835938 45.554688 C 118.839844 46.902344 119.304688 47.851562 119.453125 48.511719 C 120.222656 51.550781 119.132812 55.25 116.441406 57.796875 Z M 116.445312 57.800781 "/><path style=" stroke:none;fill-rule:evenodd;fill:#ffffff;fill-opacity:1;" d="M 108.367188 50.28125 C 108.078125 49.9375 107.925781 49.5625 107.71875 49.554688 C 104.199219 49.382812 100.917969 49.21875 97.496094 49.0625 C 97.28125 48.0625 96.78125 46.925781 96.265625 46.070312 C 96.570312 47.097656 96.8125 48.867188 96.941406 49.828125 C 96.617188 49.59375 96.492188 49.027344 96.285156 49.019531 C 92.949219 48.867188 89.671875 48.722656 86.453125 48.589844 C 84.175781 48.496094 80.722656 49.011719 79.703125 49.390625 C 79.738281 50.394531 79.628906 51.195312 79.535156 51.789062 C 80.402344 51.835938 81.082031 51.792969 81.117188 52.703125 C 81.183594 54.253906 81.078125 56.277344 80.847656 57.839844 C 81.292969 57.410156 81.65625 56.695312 81.65625 56.695312 C 83.179688 56.808594 83.636719 56.863281 83.636719 56.863281 C 83.195312 58.058594 82.625 59.195312 81.917969 60.28125 C 81.191406 61.402344 80.453125 61.480469 79.265625 61.1875 C 78.136719 60.90625 77.070312 60.863281 75.921875 61.15625 C 74.242188 61.585938 71.371094 62.542969 69.582031 62.523438 C 62.085938 62.597656 53.863281 62.355469 44.90625 61.800781 C 42.867188 61.605469 42.507812 60.984375 39.414062 60.792969 C 37.691406 60.6875 36.203125 59.070312 34.226562 57.199219 C 35.679688 58.832031 36.828125 60.019531 37.675781 60.75 C 38.824219 61.75 40.71875 61.40625 42.453125 61.992188 C 43.273438 62.3125 44.417969 62.582031 45.214844 62.578125 C 46.644531 62.652344 48.027344 62.714844 49.359375 62.777344 C 48.683594 63.59375 47.652344 64.027344 46.460938 64.074219 C 48.136719 64.324219 49.300781 63.847656 50.105469 62.808594 C 59.058594 63.207031 65.738281 63.34375 70.140625 63.222656 C 71.339844 63.171875 72.074219 63.0625 73.023438 62.785156 C 74.851562 62.257812 76.914062 61.417969 79.089844 62.023438 C 80.492188 62.308594 81.488281 62.046875 82.074219 61.242188 C 82.769531 60.402344 83.464844 59.324219 84.144531 58.007812 C 84.289062 60.769531 85.992188 65.507812 89.621094 65.011719 C 94.773438 64.3125 95.3125 52.632812 90.425781 49.941406 C 92.742188 50.253906 94.011719 52.9375 94.398438 55.414062 C 94.820312 54.648438 94.929688 54.453125 95.207031 54.4375 C 105.097656 54.53125 108.621094 54.550781 108.621094 54.550781 C 109.402344 54.742188 109.019531 57.855469 108.566406 59.125 C 110.363281 57.140625 110.742188 51.273438 113.335938 50.898438 C 112.300781 51.675781 111.992188 54.226562 111.949219 56.546875 C 111.929688 57.441406 112.039062 64.058594 113.742188 63.859375 C 115.28125 63.675781 115.667969 59.824219 115.597656 56.601562 C 115.582031 55.863281 115.535156 55.171875 115.476562 54.558594 C 115.832031 55.191406 115.933594 56.28125 115.953125 56.640625 C 118.492188 54.050781 119.078125 51.382812 118.4375 48.359375 C 118.269531 48.621094 118.183594 48.75 118.183594 48.75 C 115.003906 47.839844 113.414062 47.386719 113.414062 47.386719 C 112.511719 47.105469 111.542969 47.347656 110.515625 48.109375 C 109.324219 49.078125 108.785156 49.503906 108.785156 49.503906 C 108.3125 48.355469 107.859375 47.566406 107.53125 47.023438 C 108.027344 48.523438 108.351562 49.464844 108.367188 50.285156 Z M 42.230469 50.460938 C 42.105469 52.09375 41.246094 52.847656 40.152344 52.921875 C 39.125 52.988281 38.011719 52.738281 37.363281 51.496094 C 37.105469 52.136719 36.652344 52.523438 36.011719 52.652344 C 34.566406 52.726562 33.707031 52.003906 33.472656 51.105469 C 33.261719 50.289062 33.582031 49.304688 34.546875 48.832031 C 33.265625 50.242188 33.964844 52.554688 36.304688 52.246094 C 34.875 52.054688 34.472656 51.210938 34.484375 50.351562 C 34.496094 49.367188 35.261719 48.597656 36.125 48.617188 C 36.636719 48.628906 37.085938 48.921875 37.421875 49.628906 C 37.675781 49.074219 38.003906 48.742188 38.410156 48.636719 C 37.160156 49.707031 37.3125 52.46875 39.691406 52.582031 C 38.351562 51.957031 37.96875 50.734375 38.410156 49.503906 C 39.128906 47.808594 42.109375 47.789062 42.230469 50.464844 Z M 34.046875 52.609375 C 32.824219 51.875 32.542969 50.3125 33.488281 49.027344 C 31.867188 49.835938 32.019531 52.25 34.046875 52.609375 Z M 72.203125 48.007812 C 75.09375 47.886719 75.132812 52.488281 72.078125 52.597656 C 70.808594 52.546875 70.039062 52.0625 69.652344 51.339844 C 69.113281 50.355469 69.332031 48.996094 70.363281 48.382812 C 69.0625 49.59375 69.746094 52.398438 72.148438 52.332031 C 70.972656 51.84375 70.367188 51.089844 70.390625 50.058594 C 70.433594 48.835938 71.074219 48.152344 72.207031 48.007812 Z M 77.34375 48.398438 C 79.074219 48.796875 79.488281 51.902344 77.265625 52.34375 C 74.25 52.941406 74.078125 47.644531 77.34375 48.398438 Z M 74.210938 48.34375 C 74.421875 48.175781 74.609375 48.101562 74.769531 48.121094 C 74.496094 48.511719 74.390625 48.691406 74.449219 48.664062 C 74.289062 48.449219 74.210938 48.34375 74.210938 48.34375 Z M 74.503906 51.789062 C 74.835938 52.203125 75.296875 52.394531 75.886719 52.375 C 75.300781 52.234375 74.875 51.832031 74.601562 51.160156 C 74.472656 51.398438 74.441406 51.605469 74.503906 51.789062 Z M 69.195312 51.453125 C 69.003906 47.742188 68.910156 47.601562 68.820312 51.042969 C 68.800781 51.78125 68.554688 51.941406 67.835938 51.972656 C 62.40625 52.191406 54.824219 52.238281 45.097656 52.117188 C 44.015625 52.019531 43.753906 51.589844 43.808594 50.085938 C 43.898438 49.273438 44.101562 48.917969 44.65625 48.914062 C 46.273438 48.902344 53.738281 48.816406 67.105469 48.722656 C 67.667969 48.6875 67.828125 48.597656 67.578125 48.441406 C 64.441406 48.339844 56.871094 48.351562 44.734375 48.519531 C 43.570312 48.535156 43.15625 48.949219 43.136719 50.164062 C 43.101562 51.941406 43.566406 52.605469 44.878906 52.664062 C 54.738281 52.878906 62.40625 52.847656 67.890625 52.585938 C 68.511719 52.554688 69.148438 52.371094 69.195312 51.453125 Z M 39.933594 60.167969 C 37.792969 60.503906 36.667969 58.433594 38.214844 57.613281 C 37.878906 57.996094 37.753906 58.363281 37.835938 58.714844 C 38.070312 58.714844 38.1875 58.714844 38.1875 58.714844 C 38.316406 59.515625 38.867188 59.902344 39.636719 59.902344 C 38.800781 59.546875 38.578125 58.757812 38.824219 58.386719 C 39.386719 57.535156 40.324219 58 40.605469 58.84375 C 40.789062 59.386719 40.695312 60.046875 39.929688 60.167969 Z M 74.855469 58.339844 C 75.722656 58.988281 75.566406 60.589844 74.566406 60.875 C 72.589844 61.4375 70.460938 58.191406 72.761719 57.921875 C 72.492188 58.046875 72.28125 58.285156 72.289062 58.671875 C 72.734375 58.671875 72.789062 58.671875 72.789062 58.671875 C 72.882812 59.726562 73.507812 60.355469 74.351562 60.292969 C 72.699219 59.28125 73.578125 57.367188 74.855469 58.339844 Z M 69.945312 57.949219 C 69.949219 57.632812 70.078125 57.484375 70.335938 57.503906 C 70.335938 57.503906 72.726562 57.429688 77.503906 57.28125 C 78.011719 57.265625 78.605469 56.976562 79.289062 56.414062 C 78.890625 56.585938 78.339844 56.707031 77.644531 56.777344 C 77.644531 56.777344 75.078125 56.851562 69.949219 57 C 69.714844 56.976562 69.535156 57.191406 69.417969 57.644531 C 69.28125 58.097656 68.9375 58.378906 68.386719 58.480469 C 63.699219 58.558594 55.558594 58.558594 43.960938 58.480469 C 42.910156 58.402344 42.546875 57.941406 41.769531 57.242188 C 40.976562 56.523438 40.816406 56.617188 39.527344 56.613281 C 36.832031 56.648438 35.128906 56.628906 34.421875 56.554688 C 34.675781 56.941406 35.699219 57.125 37.492188 57.113281 C 39.386719 57.113281 40.335938 57.113281 40.335938 57.113281 C 40.730469 57.152344 40.96875 57.300781 41.28125 57.558594 C 42.21875 58.597656 42.898438 59.117188 43.792969 59.121094 C 52.269531 59.390625 60.503906 59.453125 68.496094 59.316406 C 69.304688 59.183594 69.789062 58.730469 69.945312 57.949219 Z M 57.109375 41.710938 C 57.109375 41.710938 59.117188 39.484375 60.917969 37.738281 C 62.839844 35.875 64.671875 35.046875 67.289062 34.730469 C 70.859375 34.300781 79.023438 34.015625 89.730469 34.199219 C 93.261719 34.257812 98.695312 34.566406 101.886719 36.109375 C 104.011719 37.175781 106.613281 39.433594 109.695312 42.886719 C 109.695312 42.886719 111.386719 43.5625 114.769531 44.917969 C 114.769531 44.917969 115.421875 44.910156 116.730469 44.894531 C 116.984375 44.890625 116.925781 45.230469 116.953125 45.515625 C 116.96875 45.648438 116.730469 45.539062 116.5 45.601562 C 116.707031 45.683594 117.207031 46.277344 117.671875 46.871094 C 115.492188 45.648438 112.09375 44.460938 110.464844 43.953125 C 108.828125 43.445312 107.609375 44.148438 106.347656 45.28125 C 94.472656 44.679688 85.867188 44.46875 82.757812 45.226562 C 81.214844 45.605469 80.203125 46.339844 79.371094 47.761719 C 79.371094 47.761719 78.832031 47.5625 78.828125 47.792969 C 79.363281 48.480469 79.347656 49.03125 79.246094 50.273438 C 79.214844 48.636719 78.210938 47.875 76.625 47.761719 C 61.402344 47.363281 46.746094 47.585938 32.707031 48.335938 C 31.929688 48.390625 31.480469 49.039062 31.3125 49.730469 C 31.535156 49.476562 31.664062 49.429688 31.828125 49.367188 C 31.398438 50.300781 31.59375 52.070312 32.441406 52.730469 C 32.257812 52.734375 31.945312 52.734375 31.648438 52.476562 C 31.917969 53.117188 32.804688 53.414062 33.835938 53.414062 C 36.785156 53.625 54.472656 53.824219 75.632812 53.539062 C 76.757812 53.523438 78.238281 53.429688 78.839844 52.519531 C 78.195312 53.992188 77.105469 54.4375 75.609375 54.453125 C 60.777344 54.628906 47.148438 54.574219 33.835938 54.398438 C 33.207031 54.386719 32.332031 54.273438 31.761719 54 C 31.761719 54 31.890625 54.429688 32.148438 55.285156 C 30.613281 53.519531 30.152344 50.40625 31.300781 48.359375 C 32.175781 46.800781 33.910156 45.875 35.773438 45.617188 C 38.417969 45.253906 46.328125 44.664062 50.820312 44.5625 C 51.628906 43.074219 52.03125 42.332031 52.03125 42.332031 C 52.273438 42.027344 52.609375 41.878906 53.035156 41.886719 C 55.640625 41.773438 57.109375 41.71875 57.109375 41.71875 Z M 60.15625 45.144531 C 59.632812 45.855469 56.824219 46.167969 55.695312 47.042969 C 56.21875 46.246094 56.898438 45.519531 57.507812 45.203125 C 59.476562 45.074219 60.15625 45.148438 60.15625 45.148438 Z M 74.191406 47.066406 C 74.644531 47.0625 75.75 47.039062 75.808594 46.941406 C 75.902344 46.8125 75.269531 46.714844 75.367188 46.597656 C 76.3125 45.433594 77.453125 44.90625 81.21875 44.292969 C 76.8125 44.726562 74.765625 45.511719 74.191406 47.066406 Z M 37.355469 45.8125 C 42.238281 45.339844 48.652344 45.089844 56.59375 45.058594 C 56.148438 45.339844 55.566406 46.105469 54.878906 47.109375 C 54.71875 46.949219 54.472656 46.828125 54.183594 46.835938 C 47.011719 47.023438 40.890625 47.222656 34.886719 47.570312 C 35.402344 46.722656 36.40625 45.972656 37.355469 45.8125 Z M 34.136719 47.570312 C 34.503906 46.972656 35.175781 46.339844 36.101562 45.949219 C 34.734375 46.167969 33.449219 46.867188 33.175781 47.316406 C 33.058594 47.511719 33.089844 47.625 34.136719 47.566406 Z M 66.144531 44.945312 C 67.1875 44.652344 67.375 44.292969 67.261719 44.066406 C 66.476562 42.878906 65.824219 42.273438 65.308594 42.253906 C 64.015625 42.210938 62.65625 42.191406 61.234375 42.191406 L 62.425781 43.242188 C 62.589844 43.402344 62.605469 43.527344 62.480469 43.605469 C 62.480469 43.605469 62.230469 43.785156 61.726562 44.136719 C 61.589844 44.285156 61.488281 44.265625 61.421875 44.082031 C 61.421875 44.082031 61.296875 43.617188 61.042969 42.6875 C 60.96875 42.464844 60.878906 42.300781 60.773438 42.195312 C 59.339844 42.199219 57.839844 42.226562 56.273438 42.277344 C 56.539062 42.6875 56.679688 43.023438 56.695312 43.285156 C 56.6875 43.644531 56.570312 43.933594 56.34375 44.148438 C 56.152344 44.222656 56.046875 44.175781 56.023438 44.007812 C 56.023438 44.007812 56.027344 43.480469 56.039062 42.421875 C 56.042969 42.371094 56.046875 42.324219 56.054688 42.285156 C 55.179688 42.316406 54.289062 42.351562 53.375 42.390625 C 52.867188 42.386719 52.523438 42.546875 52.34375 42.878906 C 52.34375 42.878906 52.066406 43.402344 51.394531 44.554688 C 54.277344 44.527344 59.195312 44.441406 66.0625 44.515625 C 66.210938 44.519531 66.207031 44.847656 66.148438 44.945312 Z M 106.972656 42.484375 C 107.226562 42.347656 107.484375 42.382812 108.46875 42.546875 C 106.128906 40.03125 103.945312 38.253906 102.050781 37.164062 C 100.464844 36.253906 98.195312 35.96875 96.410156 35.785156 C 95.726562 35.738281 95.394531 36.027344 95.40625 36.648438 C 95.6875 39.167969 95.902344 41.675781 95.972656 43.667969 C 97.878906 43.78125 98.832031 43.835938 98.832031 43.835938 C 98.757812 44.207031 98.746094 44.347656 98.800781 44.253906 C 99.324219 43.734375 99.582031 43.472656 99.582031 43.472656 C 98.605469 42.566406 99.183594 41.117188 100.492188 41.152344 C 101.621094 41.1875 102.359375 41.980469 102.148438 42.886719 C 101.980469 43.507812 101.300781 43.925781 100.445312 43.808594 C 100.269531 43.859375 100.011719 44.042969 100.265625 44.085938 C 102.96875 44.226562 104.40625 44.296875 104.40625 44.296875 C 103.234375 41.605469 101.878906 39.28125 100.335938 37.324219 C 102.382812 39.464844 103.960938 41.730469 105.074219 44.128906 C 106.394531 42.976562 106.972656 42.484375 106.972656 42.484375 Z M 94.539062 38.484375 C 94.675781 39.8125 94.777344 41.421875 94.847656 43.316406 C 90.710938 42.816406 84.53125 42.546875 76.304688 42.507812 C 76.304688 42.507812 76.34375 42.710938 76.417969 43.121094 C 75.558594 42.109375 72.808594 41.554688 68.164062 41.449219 C 68.164062 41.449219 64.761719 41.523438 57.957031 41.671875 C 60.578125 39.125 61.890625 37.851562 61.890625 37.851562 C 63.089844 36.742188 64.597656 36.136719 65.988281 35.984375 C 71.785156 35.460938 80.6875 35.21875 92.058594 35.675781 C 93.996094 35.765625 94.378906 36.929688 94.539062 38.488281 Z M 84.578125 57.128906 C 84.972656 56.292969 85.367188 55.371094 85.75 54.367188 C 85.925781 53.902344 86.121094 53.4375 86.335938 52.988281 C 86.425781 54.40625 86.210938 55.375 85.683594 55.894531 C 85.566406 56.339844 85.574219 56.542969 85.710938 56.507812 C 86.269531 56.378906 86.546875 56.3125 86.546875 56.3125 C 85.964844 56.671875 85.734375 56.976562 85.960938 57.882812 C 86.058594 58.265625 86.421875 58.359375 87.132812 58.40625 C 86.363281 58.710938 85.789062 58.65625 85.515625 58.238281 C 85.21875 58.632812 85.023438 58.910156 84.914062 59.082031 C 84.757812 58.4375 84.648438 57.78125 84.578125 57.128906 Z M 86.980469 51.8125 C 87.273438 51.359375 87.589844 50.957031 87.9375 50.648438 C 89.015625 51.441406 89.304688 52.363281 88.804688 53.414062 C 88.804688 53.414062 88.359375 53.960938 87.464844 55.058594 C 87.210938 55.121094 87.054688 55.019531 86.992188 54.75 C 87.039062 53.585938 87.035156 52.605469 86.980469 51.808594 Z M 88.621094 50.179688 C 88.785156 50.097656 88.953125 50.039062 89.128906 50 L 89.167969 49.992188 C 92.503906 51.792969 92.816406 61.433594 89.679688 63.492188 C 90.894531 63.386719 91.824219 62.363281 92.554688 61.265625 C 91.339844 64.238281 89.546875 64.574219 88.414062 64.304688 C 87.917969 64.191406 87.457031 63.894531 87.035156 63.472656 C 87.160156 62.671875 87.171875 61.703125 87.074219 60.582031 C 86.976562 60.152344 87.269531 59.964844 87.492188 60.105469 C 88.675781 60.894531 89.121094 61.859375 88.832031 63.007812 C 88.515625 63.527344 88.355469 63.789062 88.355469 63.789062 C 91.902344 61.453125 91.476562 52.914062 88.621094 50.179688 Z M 114.714844 53.058594 C 114.097656 52.050781 113.632812 52.191406 113.320312 53.03125 C 113.917969 55.328125 114.121094 58.339844 113.683594 61.730469 C 114.046875 61.875 114.429688 61.570312 114.828125 60.808594 C 114.570312 62.1875 114.207031 62.910156 113.738281 62.984375 C 112.949219 62.742188 112.464844 59.277344 112.640625 54.980469 C 112.691406 53.710938 113.109375 51.816406 113.703125 51.667969 C 114.003906 51.59375 114.496094 51.9375 114.714844 53.058594 Z M 85.042969 59.582031 C 85.339844 60.664062 85.757812 61.675781 86.265625 62.484375 C 86.339844 60.796875 86.050781 59.667969 85.402344 59.101562 Z M 89.335938 54.5 C 90.042969 54.066406 90.304688 54.585938 90.113281 56.0625 C 89.953125 56.796875 89.164062 57.140625 88.394531 57.117188 C 88.066406 57.109375 87.878906 56.839844 88.023438 56.34375 C 88.023438 56.34375 88.460938 55.730469 89.335938 54.503906 Z M 88.132812 58.898438 C 88.769531 59.664062 89.375 60.339844 89.699219 61.191406 C 89.953125 60.574219 90.09375 59.875 90.117188 59.324219 C 90.148438 58.964844 89.714844 58.589844 88.816406 58.195312 C 88.242188 57.945312 87.703125 58.378906 88.132812 58.898438 Z M 95.863281 59.984375 C 96.222656 57.605469 96.066406 57.289062 95.765625 58.535156 C 95.355469 60.023438 95.152344 60.765625 95.152344 60.765625 C 101.566406 60.523438 104.773438 60.402344 104.773438 60.402344 C 106.109375 60.214844 106.824219 58.0625 107.308594 56.972656 C 106.390625 58.695312 105.65625 59.542969 104.714844 59.789062 C 98.824219 59.992188 95.863281 59.984375 95.863281 59.984375 Z M 95.863281 59.984375 "/><path style=" stroke:none;fill-rule:evenodd;fill:#000000;fill-opacity:1;" d="M 67.960938 43.234375 C 72.976562 42.824219 75.410156 42.875 76.1875 43.554688 C 74.851562 43.472656 70.765625 43.695312 67.90625 44.082031 C 67.628906 43.578125 67.160156 43.058594 66.664062 42.492188 C 67.027344 42.597656 67.960938 43.230469 67.960938 43.230469 Z M 67.960938 43.234375 "/><path style=" stroke:none;fill-rule:evenodd;fill:#ffffff;fill-opacity:1;" d="M 79.644531 38.726562 C 79.621094 38.238281 79.480469 37.875 79.335938 37.472656 C 83.703125 37.472656 87.980469 37.546875 92.160156 37.695312 C 92.738281 37.714844 92.933594 37.953125 92.914062 38.101562 C 92.507812 38.542969 92.324219 39.011719 92.1875 39.816406 C 90.855469 39.800781 89.976562 39.792969 89.554688 39.789062 C 88.847656 39.785156 88.242188 40.113281 87.921875 40.761719 C 84.054688 40.761719 82.125 40.761719 82.125 40.761719 C 82.007812 39.332031 81.691406 39.058594 79.640625 38.726562 Z M 67.320312 40.496094 C 63.417969 40.609375 61.011719 40.714844 60.207031 40.765625 C 60.898438 40.109375 61.375 39.660156 61.703125 39.355469 C 63.160156 37.996094 64.808594 37.582031 66.730469 37.363281 C 70.542969 37.277344 72.617188 37.222656 72.617188 37.222656 C 70.5 37.5 70.367188 37.621094 69.125 39.050781 C 68.476562 39.804688 68.214844 40.46875 67.320312 40.496094 Z M 67.320312 40.496094 "/></g></svg>