<svg xmlns="http://www.w3.org/2000/svg" xmlns:xlink="http://www.w3.org/1999/xlink" width="50" zoomAndPan="magnify" viewBox="0 0 37.5 37.499999" height="50" preserveAspectRatio="xMidYMid meet" version="1.2"><defs><clipPath id="66b082d201"><path d="M 0 7.125 L 37.007812 7.125 L 37.007812 30.066406 L 0 30.066406 Z M 0 7.125 "/></clipPath></defs><g id="ec4c2c9f82"><g clip-rule="nonzero" clip-path="url(#66b082d201)"><path style=" stroke:none;fill-rule:nonzero;fill:#000000;fill-opacity:1;" d="M 17.730469 18.894531 L 12.035156 18.894531 C 10.601562 18.894531 9.433594 19.925781 9.433594 21.1875 L 9.433594 21.421875 C 9.433594 22.332031 10.261719 23.070312 11.28125 23.070312 L 18.488281 23.070312 C 19.507812 23.070312 20.335938 22.332031 20.335938 21.421875 L 20.335938 21.1875 C 20.335938 19.925781 19.167969 18.894531 17.730469 18.894531 Z M 19.324219 21.421875 C 19.324219 21.765625 18.941406 22.050781 18.488281 22.050781 L 11.28125 22.050781 C 10.828125 22.050781 10.445312 21.765625 10.445312 21.421875 L 10.445312 21.1875 C 10.445312 20.5 11.171875 19.914062 12.035156 19.914062 L 17.730469 19.914062 C 18.59375 19.914062 19.324219 20.5 19.324219 21.1875 Z M 6.410156 19.550781 C 5.804688 19.34375 3.773438 18.742188 3.066406 19.675781 C 2.710938 20.144531 2.800781 20.789062 3.335938 21.59375 C 3.707031 22.148438 4.25 22.539062 4.996094 22.785156 C 5.3125 22.878906 5.632812 22.921875 5.960938 22.914062 C 6.648438 22.914062 7.449219 22.757812 7.980469 22.371094 C 8.476562 22.007812 8.578125 21.570312 8.578125 21.265625 C 8.582031 20.417969 7.21875 19.828125 6.410156 19.550781 Z M 7.386719 21.542969 C 6.886719 21.910156 5.773438 21.96875 5.3125 21.816406 C 4.78125 21.640625 4.417969 21.390625 4.175781 21.027344 C 3.816406 20.488281 3.867188 20.296875 3.867188 20.296875 C 3.894531 20.261719 4.105469 20.148438 4.683594 20.199219 C 5.929688 20.308594 7.347656 21 7.566406 21.3125 C 7.554688 21.363281 7.519531 21.445312 7.386719 21.542969 Z M 25.511719 18.792969 L 25.933594 18.898438 C 25.984375 19.054688 26.046875 19.210938 26.121094 19.359375 L 25.898438 19.738281 C 25.78125 19.933594 25.792969 20.121094 25.929688 20.304688 C 26.042969 20.457031 26.167969 20.601562 26.300781 20.738281 C 26.433594 20.871094 26.574219 20.996094 26.726562 21.109375 C 26.90625 21.25 27.09375 21.261719 27.292969 21.144531 L 27.667969 20.914062 C 27.8125 20.988281 27.964844 21.050781 28.121094 21.105469 L 28.230469 21.535156 C 28.285156 21.757812 28.425781 21.882812 28.652344 21.914062 C 29.027344 21.964844 29.402344 21.964844 29.777344 21.914062 C 30.003906 21.882812 30.144531 21.757812 30.199219 21.535156 L 30.308594 21.105469 C 30.464844 21.050781 30.613281 20.988281 30.761719 20.914062 L 31.136719 21.140625 C 31.332031 21.261719 31.523438 21.25 31.703125 21.109375 C 31.851562 20.996094 31.996094 20.871094 32.128906 20.738281 C 32.261719 20.601562 32.386719 20.457031 32.5 20.304688 C 32.636719 20.121094 32.644531 19.933594 32.53125 19.738281 L 32.304688 19.355469 C 32.378906 19.210938 32.441406 19.054688 32.496094 18.898438 L 32.917969 18.789062 C 33.136719 18.734375 33.261719 18.59375 33.296875 18.367188 C 33.351562 17.988281 33.351562 17.605469 33.296875 17.226562 C 33.261719 17 33.136719 16.859375 32.917969 16.804688 L 32.496094 16.695312 C 32.441406 16.539062 32.378906 16.386719 32.304688 16.238281 L 32.53125 15.859375 C 32.644531 15.664062 32.636719 15.472656 32.5 15.292969 C 32.273438 14.988281 32.007812 14.71875 31.707031 14.488281 C 31.523438 14.347656 31.335938 14.335938 31.140625 14.453125 L 30.789062 14.664062 L 30.761719 14.679688 C 30.613281 14.605469 30.460938 14.542969 30.308594 14.492188 L 30.199219 14.0625 C 30.144531 13.839844 30.003906 13.714844 29.777344 13.683594 C 29.402344 13.628906 29.027344 13.628906 28.652344 13.683594 C 28.425781 13.714844 28.285156 13.839844 28.230469 14.0625 L 28.121094 14.492188 C 27.964844 14.542969 27.816406 14.605469 27.667969 14.679688 L 27.289062 14.453125 C 27.09375 14.335938 26.90625 14.347656 26.726562 14.488281 C 26.574219 14.601562 26.433594 14.726562 26.300781 14.859375 C 26.167969 14.996094 26.042969 15.140625 25.929688 15.292969 C 25.792969 15.476562 25.78125 15.664062 25.898438 15.859375 L 26.121094 16.238281 C 26.046875 16.386719 25.984375 16.539062 25.933594 16.695312 L 25.511719 16.804688 C 25.289062 16.859375 25.164062 17 25.132812 17.226562 C 25.082031 17.605469 25.078125 17.984375 25.132812 18.367188 C 25.164062 18.59375 25.289062 18.734375 25.511719 18.792969 Z M 26.464844 17.613281 C 26.664062 17.5625 26.785156 17.4375 26.832031 17.234375 C 26.894531 16.972656 26.996094 16.726562 27.136719 16.5 C 27.242188 16.324219 27.246094 16.148438 27.140625 15.96875 L 26.949219 15.648438 C 26.972656 15.625 26.996094 15.605469 27.015625 15.582031 C 27.039062 15.558594 27.058594 15.539062 27.082031 15.515625 L 27.394531 15.707031 C 27.574219 15.816406 27.75 15.8125 27.925781 15.703125 C 28.152344 15.5625 28.394531 15.460938 28.65625 15.398438 C 28.855469 15.351562 28.980469 15.226562 29.03125 15.027344 L 29.121094 14.664062 C 29.183594 14.664062 29.246094 14.664062 29.304688 14.664062 L 29.394531 15.027344 C 29.445312 15.226562 29.570312 15.351562 29.773438 15.398438 C 30.03125 15.460938 30.277344 15.5625 30.503906 15.703125 C 30.679688 15.8125 30.855469 15.816406 31.03125 15.707031 L 31.308594 15.539062 L 31.34375 15.515625 C 31.390625 15.558594 31.433594 15.605469 31.476562 15.648438 L 31.289062 15.96875 C 31.183594 16.148438 31.183594 16.324219 31.292969 16.5 C 31.433594 16.726562 31.535156 16.972656 31.59375 17.234375 C 31.640625 17.4375 31.765625 17.5625 31.964844 17.613281 L 32.320312 17.703125 C 32.324219 17.765625 32.324219 17.828125 32.320312 17.890625 L 31.960938 17.984375 C 31.761719 18.035156 31.640625 18.160156 31.59375 18.363281 C 31.53125 18.625 31.433594 18.871094 31.292969 19.097656 C 31.183594 19.273438 31.183594 19.449219 31.289062 19.625 L 31.476562 19.949219 C 31.457031 19.96875 31.433594 19.992188 31.410156 20.015625 C 31.390625 20.035156 31.367188 20.058594 31.347656 20.078125 L 31.03125 19.886719 C 30.851562 19.78125 30.675781 19.78125 30.5 19.894531 C 30.273438 20.035156 30.03125 20.136719 29.769531 20.195312 C 29.570312 20.246094 29.445312 20.367188 29.394531 20.570312 L 29.304688 20.929688 C 29.242188 20.933594 29.183594 20.933594 29.121094 20.929688 L 29.03125 20.570312 C 28.980469 20.367188 28.855469 20.246094 28.65625 20.195312 C 28.394531 20.136719 28.152344 20.035156 27.925781 19.894531 C 27.75 19.78125 27.574219 19.78125 27.398438 19.886719 L 27.082031 20.078125 C 27.058594 20.058594 27.035156 20.035156 27.015625 20.015625 C 26.992188 19.992188 26.972656 19.972656 26.949219 19.949219 L 27.140625 19.625 C 27.246094 19.449219 27.242188 19.273438 27.136719 19.097656 C 26.996094 18.871094 26.894531 18.625 26.832031 18.363281 C 26.789062 18.160156 26.664062 18.035156 26.46875 17.984375 L 26.105469 17.890625 C 26.105469 17.828125 26.105469 17.765625 26.105469 17.703125 Z M 35.742188 10.960938 L 33.652344 10.960938 L 33.652344 10.785156 C 33.652344 10.566406 33.574219 10.382812 33.421875 10.226562 C 33.269531 10.070312 33.082031 9.992188 32.867188 9.992188 L 30.917969 9.992188 C 30.804688 9.613281 30.589844 9.304688 30.277344 9.070312 C 29.960938 8.832031 29.605469 8.714844 29.214844 8.714844 C 28.820312 8.714844 28.46875 8.832031 28.152344 9.070312 C 27.835938 9.304688 27.621094 9.613281 27.511719 9.992188 L 25.5625 9.992188 C 25.34375 9.992188 25.160156 10.070312 25.007812 10.226562 C 24.851562 10.382812 24.777344 10.566406 24.777344 10.785156 L 24.777344 10.960938 L 24.636719 10.960938 C 24.464844 10.640625 24.292969 10.332031 24.117188 10.039062 C 23.164062 8.417969 21.558594 7.421875 19.714844 7.316406 C 16.496094 7.132812 13.273438 7.132812 10.054688 7.316406 C 8.210938 7.421875 6.605469 8.417969 5.652344 10.042969 C 4.972656 11.199219 4.320312 12.507812 3.707031 13.839844 L 1.351562 13.839844 C 1.171875 13.839844 1 13.875 0.835938 13.945312 C 0.667969 14.011719 0.523438 14.109375 0.398438 14.238281 C 0.269531 14.367188 0.171875 14.515625 0.101562 14.679688 C 0.0351562 14.847656 0 15.023438 0 15.203125 L 0 15.367188 C 0 15.65625 0.046875 15.933594 0.140625 16.207031 C 0.230469 16.480469 0.367188 16.730469 0.539062 16.957031 C 0.714844 17.183594 0.921875 17.375 1.160156 17.535156 C 1.398438 17.691406 1.65625 17.808594 1.933594 17.878906 C 1.683594 18.460938 1.441406 19.023438 1.203125 19.5625 C 1.039062 19.917969 0.960938 20.292969 0.964844 20.683594 L 0.964844 25.25 C 0.964844 25.628906 1.0625 25.980469 1.253906 26.304688 C 1.449219 26.628906 1.710938 26.878906 2.039062 27.058594 L 2.039062 28.945312 C 2.039062 29.214844 2.136719 29.445312 2.328125 29.636719 C 2.515625 29.832031 2.746094 29.925781 3.015625 29.925781 L 6.496094 29.925781 C 6.765625 29.925781 6.992188 29.832031 7.183594 29.636719 C 7.375 29.445312 7.46875 29.214844 7.46875 28.945312 L 7.46875 27.296875 L 21.421875 27.296875 L 21.421875 28.789062 C 21.421875 28.957031 21.453125 29.121094 21.519531 29.277344 C 21.582031 29.433594 21.675781 29.570312 21.792969 29.691406 C 21.910156 29.808594 22.050781 29.902344 22.203125 29.964844 C 22.359375 30.03125 22.519531 30.0625 22.6875 30.0625 L 35.742188 30.0625 C 35.90625 30.0625 36.070312 30.03125 36.222656 29.964844 C 36.378906 29.902344 36.515625 29.808594 36.636719 29.691406 C 36.753906 29.570312 36.84375 29.433594 36.910156 29.277344 C 36.972656 29.121094 37.007812 28.957031 37.007812 28.789062 L 37.007812 12.234375 C 37.007812 12.066406 36.972656 11.902344 36.910156 11.746094 C 36.84375 11.589844 36.753906 11.453125 36.636719 11.332031 C 36.515625 11.214844 36.378906 11.121094 36.222656 11.058594 C 36.070312 10.992188 35.90625 10.960938 35.742188 10.960938 Z M 25.789062 11.015625 L 27.941406 11.015625 C 28.082031 11.015625 28.203125 10.964844 28.300781 10.863281 C 28.398438 10.765625 28.449219 10.644531 28.449219 10.503906 C 28.449219 10.292969 28.527344 10.113281 28.675781 9.964844 C 28.824219 9.8125 29.003906 9.738281 29.214844 9.738281 C 29.425781 9.738281 29.601562 9.8125 29.753906 9.964844 C 29.902344 10.113281 29.976562 10.292969 29.980469 10.503906 C 29.980469 10.644531 30.027344 10.765625 30.128906 10.863281 C 30.226562 10.964844 30.34375 11.015625 30.484375 11.015625 L 32.640625 11.015625 L 32.640625 11.925781 L 25.789062 11.925781 Z M 6.523438 10.5625 C 7.300781 9.234375 8.609375 8.421875 10.113281 8.335938 C 13.292969 8.152344 16.476562 8.152344 19.65625 8.335938 C 21.15625 8.421875 22.464844 9.234375 23.25 10.5625 C 23.324219 10.691406 23.402344 10.824219 23.476562 10.960938 L 22.6875 10.960938 C 22.519531 10.960938 22.359375 10.992188 22.203125 11.058594 C 22.050781 11.121094 21.914062 11.214844 21.792969 11.332031 C 21.675781 11.453125 21.582031 11.589844 21.519531 11.746094 C 21.453125 11.902344 21.421875 12.066406 21.421875 12.234375 L 21.421875 15.230469 L 4.1875 15.230469 C 4.917969 13.597656 5.699219 11.960938 6.523438 10.5625 Z M 1.011719 15.367188 L 1.011719 15.203125 C 1.011719 15.109375 1.046875 15.027344 1.113281 14.960938 C 1.179688 14.894531 1.257812 14.859375 1.351562 14.859375 L 3.246094 14.859375 C 3.144531 15.085938 3.042969 15.3125 2.945312 15.539062 L 2.941406 15.542969 C 2.738281 16.011719 2.539062 16.472656 2.34375 16.925781 C 2.160156 16.898438 1.984375 16.835938 1.820312 16.746094 C 1.65625 16.65625 1.511719 16.539062 1.390625 16.394531 C 1.269531 16.253906 1.175781 16.09375 1.109375 15.914062 C 1.042969 15.738281 1.011719 15.554688 1.011719 15.367188 Z M 6.457031 28.90625 L 3.050781 28.90625 L 3.050781 27.296875 L 6.457031 27.296875 Z M 9.804688 26.277344 C 9.964844 25.699219 10.394531 25.296875 10.914062 25.296875 L 18.851562 25.296875 C 19.375 25.296875 19.816406 25.707031 19.972656 26.277344 Z M 21.011719 26.277344 C 20.816406 25.140625 19.921875 24.277344 18.851562 24.277344 L 10.914062 24.277344 C 9.839844 24.277344 8.964844 25.121094 8.765625 26.277344 L 2.992188 26.277344 C 2.894531 26.277344 2.796875 26.261719 2.703125 26.234375 C 2.695312 26.230469 2.691406 26.230469 2.6875 26.230469 C 2.476562 26.160156 2.304688 26.035156 2.175781 25.855469 C 2.042969 25.675781 1.976562 25.472656 1.976562 25.25 L 1.976562 20.683594 C 1.972656 20.4375 2.023438 20.203125 2.125 19.976562 C 2.421875 19.304688 2.722656 18.609375 3.039062 17.875 C 3.265625 17.347656 3.5 16.800781 3.738281 16.253906 L 21.421875 16.253906 L 21.421875 26.277344 Z M 35.996094 28.789062 C 35.996094 28.859375 35.96875 28.917969 35.917969 28.96875 C 35.871094 29.019531 35.808594 29.042969 35.742188 29.042969 L 22.6875 29.042969 C 22.617188 29.042969 22.558594 29.019531 22.507812 28.96875 C 22.460938 28.917969 22.433594 28.859375 22.433594 28.789062 L 22.433594 12.234375 C 22.4375 12.066406 22.523438 11.980469 22.6875 11.980469 L 24.777344 11.980469 L 24.777344 12.152344 C 24.777344 12.371094 24.851562 12.558594 25.007812 12.714844 C 25.160156 12.871094 25.34375 12.945312 25.5625 12.945312 L 32.867188 12.945312 C 33.082031 12.945312 33.269531 12.871094 33.421875 12.714844 C 33.574219 12.558594 33.652344 12.371094 33.652344 12.152344 L 33.652344 11.980469 L 35.742188 11.980469 C 35.90625 11.980469 35.992188 12.066406 35.996094 12.234375 Z M 29.214844 19.863281 C 29.78125 19.867188 30.261719 19.664062 30.664062 19.261719 L 30.664062 19.257812 C 30.773438 19.148438 30.871094 19.023438 30.953125 18.890625 C 31.039062 18.753906 31.105469 18.613281 31.15625 18.464844 C 31.207031 18.3125 31.238281 18.160156 31.253906 18 C 31.269531 17.84375 31.265625 17.6875 31.246094 17.527344 C 31.226562 17.371094 31.1875 17.21875 31.132812 17.070312 C 31.078125 16.921875 31.003906 16.78125 30.917969 16.652344 C 30.832031 16.519531 30.730469 16.398438 30.613281 16.292969 C 30.5 16.183594 30.375 16.089844 30.238281 16.011719 C 30.101562 15.929688 29.960938 15.867188 29.808594 15.824219 C 29.660156 15.777344 29.503906 15.75 29.347656 15.738281 C 29.191406 15.726562 29.035156 15.734375 28.878906 15.761719 C 28.726562 15.785156 28.574219 15.832031 28.429688 15.890625 C 28.285156 15.953125 28.148438 16.027344 28.019531 16.121094 C 27.894531 16.210938 27.777344 16.316406 27.671875 16.4375 C 27.570312 16.554688 27.480469 16.6875 27.40625 16.824219 C 27.332031 16.964844 27.277344 17.113281 27.234375 17.265625 C 27.195312 17.417969 27.171875 17.574219 27.167969 17.730469 C 27.160156 17.890625 27.171875 18.046875 27.203125 18.203125 C 27.234375 18.359375 27.28125 18.507812 27.347656 18.652344 C 27.414062 18.796875 27.492188 18.929688 27.589844 19.058594 C 27.683594 19.183594 27.792969 19.296875 27.914062 19.394531 C 28.035156 19.496094 28.167969 19.582031 28.308594 19.652344 C 28.449219 19.722656 28.597656 19.773438 28.75 19.8125 C 28.902344 19.847656 29.058594 19.863281 29.214844 19.863281 Z M 28.480469 17.058594 C 28.578125 16.960938 28.691406 16.886719 28.816406 16.832031 C 28.945312 16.777344 29.078125 16.753906 29.214844 16.753906 C 29.351562 16.753906 29.484375 16.777344 29.613281 16.832031 C 29.738281 16.886719 29.851562 16.960938 29.949219 17.058594 C 30.046875 17.15625 30.121094 17.269531 30.171875 17.398438 C 30.226562 17.527344 30.253906 17.660156 30.253906 17.796875 C 30.253906 17.9375 30.226562 18.070312 30.171875 18.199219 C 30.121094 18.328125 30.046875 18.441406 29.949219 18.539062 C 29.851562 18.636719 29.738281 18.710938 29.613281 18.765625 C 29.484375 18.816406 29.351562 18.84375 29.214844 18.84375 C 29.078125 18.84375 28.945312 18.820312 28.820312 18.765625 C 28.691406 18.710938 28.578125 18.636719 28.480469 18.539062 C 28.382812 18.441406 28.308594 18.328125 28.253906 18.199219 C 28.203125 18.070312 28.175781 17.9375 28.175781 17.800781 C 28.175781 17.660156 28.203125 17.527344 28.253906 17.398438 C 28.308594 17.269531 28.382812 17.15625 28.480469 17.058594 Z M 35.136719 27.359375 C 35.136719 27.5 35.085938 27.621094 34.988281 27.71875 C 34.890625 27.820312 34.769531 27.871094 34.628906 27.871094 L 23.796875 27.871094 C 23.660156 27.871094 23.539062 27.820312 23.441406 27.71875 C 23.339844 27.621094 23.292969 27.5 23.292969 27.359375 C 23.292969 27.21875 23.339844 27.097656 23.441406 27 C 23.539062 26.898438 23.660156 26.847656 23.796875 26.847656 L 34.628906 26.847656 C 34.769531 26.847656 34.890625 26.898438 34.988281 27 C 35.085938 27.097656 35.136719 27.21875 35.136719 27.359375 Z M 35.136719 23.160156 C 35.136719 23.300781 35.085938 23.421875 34.988281 23.519531 C 34.890625 23.621094 34.769531 23.671875 34.628906 23.671875 L 23.796875 23.671875 C 23.660156 23.671875 23.539062 23.621094 23.441406 23.519531 C 23.339844 23.421875 23.292969 23.300781 23.292969 23.160156 C 23.292969 23.019531 23.339844 22.898438 23.441406 22.800781 C 23.539062 22.699219 23.660156 22.652344 23.796875 22.652344 L 34.628906 22.652344 C 34.769531 22.652344 34.890625 22.699219 34.988281 22.800781 C 35.085938 22.898438 35.136719 23.019531 35.136719 23.160156 Z M 35.136719 25.257812 C 35.136719 25.398438 35.085938 25.519531 34.988281 25.621094 C 34.890625 25.71875 34.769531 25.769531 34.628906 25.769531 L 23.796875 25.769531 C 23.660156 25.769531 23.539062 25.71875 23.441406 25.621094 C 23.339844 25.519531 23.292969 25.398438 23.292969 25.257812 C 23.292969 25.117188 23.339844 24.996094 23.441406 24.898438 C 23.539062 24.796875 23.660156 24.75 23.796875 24.75 L 34.628906 24.75 C 34.769531 24.75 34.890625 24.796875 34.988281 24.898438 C 35.085938 24.996094 35.136719 25.117188 35.136719 25.257812 Z M 35.136719 25.257812 "/></g></g></svg>