<svg xmlns="http://www.w3.org/2000/svg" xmlns:xlink="http://www.w3.org/1999/xlink" width="60" zoomAndPan="magnify" viewBox="0 0 45 44.999999" height="60" preserveAspectRatio="xMidYMid meet" version="1.2"><defs><clipPath id="ae13c52e72"><path d="M 0 0.28125 L 45 0.28125 L 45 44.53125 L 0 44.53125 Z M 0 0.28125 "/></clipPath></defs><g id="17cdfed296"><g clip-rule="nonzero" clip-path="url(#ae13c52e72)"><path style=" stroke:none;fill-rule:nonzero;fill:#f59e0b;fill-opacity:1;" d="M 34.828125 31.246094 C 34.644531 31.0625 34.347656 31.0625 34.164062 31.246094 L 33.066406 32.34375 L 30.496094 29.773438 C 33.589844 26.515625 35.285156 22.265625 35.285156 17.757812 C 35.285156 13.09375 33.46875 8.707031 30.167969 5.40625 C 26.871094 2.109375 22.484375 0.289062 17.816406 0.289062 C 13.152344 0.289062 8.765625 2.105469 5.464844 5.40625 C 2.882812 7.992188 1.199219 11.253906 0.59375 14.847656 C 0.00390625 18.359375 0.480469 21.917969 1.980469 25.132812 C 2.839844 26.980469 4.011719 28.65625 5.464844 30.109375 C 8.765625 33.410156 13.152344 35.226562 17.816406 35.226562 C 22.328125 35.226562 26.574219 33.527344 29.832031 30.4375 L 32.402344 33.007812 L 31.308594 34.101562 C 31.125 34.285156 31.125 34.582031 31.308594 34.765625 L 40.410156 43.871094 C 40.851562 44.308594 41.429688 44.53125 42.007812 44.53125 C 42.585938 44.53125 43.164062 44.308594 43.601562 43.871094 L 43.929688 43.542969 C 44.808594 42.664062 44.808594 41.230469 43.929688 40.351562 Z M 29.503906 29.445312 C 26.382812 32.566406 22.234375 34.285156 17.816406 34.285156 C 13.402344 34.285156 9.253906 32.566406 6.132812 29.445312 C 4.753906 28.070312 3.644531 26.484375 2.832031 24.738281 C 1.414062 21.695312 0.960938 18.328125 1.519531 15.003906 C 2.09375 11.605469 3.6875 8.515625 6.132812 6.070312 C 9.253906 2.949219 13.402344 1.230469 17.816406 1.230469 C 22.234375 1.230469 26.382812 2.949219 29.503906 6.070312 C 32.625 9.195312 34.34375 13.34375 34.34375 17.757812 C 34.34375 22.171875 32.625 26.324219 29.503906 29.445312 Z M 43.265625 42.878906 L 42.9375 43.207031 C 42.425781 43.71875 41.589844 43.71875 41.074219 43.207031 L 32.304688 34.433594 L 34.496094 32.246094 L 43.265625 41.015625 C 43.777344 41.527344 43.777344 42.363281 43.265625 42.878906 Z M 43.265625 42.878906 "/></g><path style=" stroke:none;fill-rule:nonzero;fill:#f59e0b;fill-opacity:1;" d="M 8.25 18.003906 L 8.234375 18.003906 C 7.78125 18.007812 7.359375 18.1875 7.039062 18.511719 C 6.722656 18.832031 6.546875 19.261719 6.550781 19.714844 C 6.554688 20.167969 6.734375 20.59375 7.058594 20.910156 C 7.375 21.226562 7.800781 21.398438 8.246094 21.398438 L 8.261719 21.398438 C 9.195312 21.390625 9.953125 20.625 9.945312 19.6875 C 9.9375 18.757812 9.179688 18.003906 8.25 18.003906 Z M 8.253906 20.457031 L 8.25 20.457031 C 8.046875 20.457031 7.859375 20.378906 7.71875 20.242188 C 7.574219 20.097656 7.492188 19.910156 7.492188 19.707031 C 7.492188 19.503906 7.566406 19.3125 7.710938 19.171875 C 7.851562 19.027344 8.039062 18.945312 8.242188 18.945312 L 8.25 18.945312 C 8.664062 18.945312 9 19.28125 9.003906 19.695312 C 9.007812 20.113281 8.671875 20.453125 8.253906 20.457031 Z M 8.253906 20.457031 "/><path style=" stroke:none;fill-rule:nonzero;fill:#f59e0b;fill-opacity:1;" d="M 27.460938 17.863281 L 27.445312 17.863281 C 26.992188 17.867188 26.570312 18.046875 26.25 18.367188 C 25.933594 18.691406 25.757812 19.117188 25.761719 19.574219 C 25.765625 20.027344 25.945312 20.449219 26.269531 20.769531 C 26.589844 21.082031 27.011719 21.257812 27.460938 21.257812 L 27.472656 21.257812 C 27.925781 21.253906 28.351562 21.074219 28.667969 20.75 C 28.988281 20.429688 29.160156 20 29.15625 19.546875 C 29.152344 19.09375 28.972656 18.667969 28.652344 18.351562 C 28.332031 18.035156 27.910156 17.863281 27.460938 17.863281 Z M 28.214844 19.554688 C 28.21875 19.757812 28.140625 19.945312 28 20.089844 C 27.855469 20.234375 27.667969 20.316406 27.464844 20.316406 C 27.265625 20.316406 27.074219 20.242188 26.929688 20.097656 C 26.785156 19.957031 26.703125 19.765625 26.703125 19.566406 C 26.703125 19.363281 26.777344 19.171875 26.921875 19.027344 C 27.0625 18.886719 27.253906 18.804688 27.453125 18.804688 L 27.460938 18.804688 C 27.660156 18.804688 27.847656 18.878906 27.992188 19.019531 C 28.132812 19.164062 28.214844 19.351562 28.214844 19.554688 Z M 28.214844 19.554688 "/><path style=" stroke:none;fill-rule:nonzero;fill:#f59e0b;fill-opacity:1;" d="M 32.175781 13.605469 C 31.914062 12.839844 31.113281 12.351562 30.132812 12.351562 C 30.125 12.351562 30.117188 12.351562 30.109375 12.351562 C 29.53125 12.355469 28.496094 12.359375 28.003906 12.359375 L 27.042969 10.625 C 26.359375 9.421875 25.367188 8.042969 23.730469 8.042969 C 23.722656 8.042969 23.71875 8.042969 23.710938 8.042969 L 11.925781 8.128906 C 10.582031 8.136719 9.398438 9.074219 8.59375 10.761719 L 7.617188 12.519531 C 7.125 12.523438 6.074219 12.527344 5.492188 12.53125 C 4.5 12.539062 3.695312 13.042969 3.445312 13.816406 C 3.261719 14.375 3.242188 14.871094 3.238281 14.890625 C 3.234375 15.019531 3.28125 15.144531 3.371094 15.238281 C 3.460938 15.328125 3.582031 15.378906 3.710938 15.378906 L 3.714844 15.378906 L 5.085938 15.367188 C 4.484375 15.878906 4.105469 16.6875 4.109375 17.605469 C 4.109375 17.625 4.113281 17.644531 4.113281 17.664062 L 4.847656 23.121094 C 4.867188 23.914062 5.445312 24.566406 6.199219 24.703125 L 6.210938 26.421875 C 6.214844 26.703125 6.328125 26.96875 6.527344 27.167969 C 6.730469 27.367188 6.992188 27.472656 7.273438 27.472656 L 7.28125 27.472656 L 9.078125 27.460938 C 9.664062 27.457031 10.136719 26.976562 10.132812 26.390625 L 10.121094 24.707031 L 25.660156 24.589844 L 25.671875 26.277344 C 25.675781 26.5625 25.789062 26.828125 25.988281 27.027344 C 26.191406 27.222656 26.453125 27.332031 26.734375 27.332031 L 26.742188 27.332031 L 28.539062 27.316406 C 29.125 27.3125 29.597656 26.832031 29.59375 26.246094 L 29.582031 24.527344 C 29.890625 24.457031 30.175781 24.300781 30.402344 24.070312 C 30.707031 23.761719 30.875 23.359375 30.878906 22.933594 L 31.5625 17.464844 C 31.5625 17.445312 31.566406 17.425781 31.566406 17.40625 C 31.558594 16.496094 31.148438 15.6875 30.523438 15.183594 L 31.929688 15.171875 C 32.058594 15.171875 32.183594 15.117188 32.269531 15.023438 C 32.359375 14.929688 32.402344 14.804688 32.398438 14.675781 C 32.394531 14.65625 32.367188 14.160156 32.175781 13.605469 Z M 9.421875 11.207031 C 9.425781 11.199219 9.429688 11.1875 9.4375 11.179688 C 9.808594 10.394531 10.628906 9.078125 11.933594 9.070312 L 23.71875 8.984375 C 23.722656 8.984375 23.726562 8.984375 23.730469 8.984375 C 24.640625 8.984375 25.390625 9.613281 26.222656 11.082031 L 28.1875 14.636719 L 26.175781 14.652344 C 25.972656 13.230469 24.75 12.140625 23.28125 12.140625 C 23.273438 12.140625 23.265625 12.140625 23.257812 12.140625 C 22.476562 12.144531 21.746094 12.453125 21.199219 13.011719 C 20.742188 13.472656 20.457031 14.0625 20.378906 14.695312 L 7.433594 14.789062 Z M 25.222656 14.660156 L 21.332031 14.6875 C 21.40625 14.304688 21.589844 13.953125 21.867188 13.671875 C 22.238281 13.292969 22.734375 13.082031 23.265625 13.078125 C 23.269531 13.078125 23.273438 13.078125 23.28125 13.078125 C 24.234375 13.078125 25.035156 13.757812 25.222656 14.660156 Z M 4.25 14.433594 C 4.273438 14.332031 4.300781 14.222656 4.339844 14.105469 C 4.460938 13.730469 4.925781 13.476562 5.5 13.472656 C 5.917969 13.46875 6.574219 13.464844 7.09375 13.464844 L 6.566406 14.414062 Z M 9.070312 26.519531 L 7.273438 26.535156 C 7.234375 26.535156 7.207031 26.515625 7.1875 26.5 C 7.171875 26.484375 7.152344 26.457031 7.152344 26.414062 L 7.140625 24.726562 L 9.179688 24.710938 L 9.191406 26.398438 C 9.191406 26.464844 9.140625 26.519531 9.070312 26.519531 Z M 28.53125 26.378906 L 26.734375 26.390625 C 26.695312 26.390625 26.667969 26.371094 26.648438 26.355469 C 26.632812 26.339844 26.613281 26.3125 26.613281 26.269531 L 26.601562 24.585938 L 28.640625 24.570312 L 28.652344 26.253906 C 28.65625 26.320312 28.601562 26.378906 28.53125 26.378906 Z M 30.625 17.382812 L 29.941406 22.84375 C 29.941406 22.863281 29.9375 22.886719 29.941406 22.90625 C 29.941406 23.09375 29.867188 23.273438 29.734375 23.410156 C 29.597656 23.546875 29.421875 23.621094 29.230469 23.625 L 6.503906 23.792969 L 6.5 23.792969 C 6.109375 23.792969 5.789062 23.476562 5.785156 23.082031 C 5.785156 23.0625 5.785156 23.042969 5.78125 23.023438 L 5.050781 17.570312 C 5.058594 16.691406 5.613281 15.789062 6.558594 15.730469 C 6.582031 15.734375 6.605469 15.738281 6.632812 15.738281 L 6.636719 15.738281 L 28.96875 15.574219 C 28.972656 15.574219 28.972656 15.574219 28.976562 15.574219 C 28.980469 15.574219 28.984375 15.574219 28.988281 15.574219 C 29.875 15.574219 30.601562 16.378906 30.625 17.382812 Z M 29.046875 14.253906 L 28.519531 13.300781 C 29.039062 13.296875 29.699219 13.292969 30.117188 13.292969 C 30.121094 13.292969 30.128906 13.292969 30.132812 13.292969 C 30.695312 13.292969 31.160156 13.539062 31.285156 13.910156 C 31.324219 14.023438 31.355469 14.132812 31.378906 14.234375 Z M 29.046875 14.253906 "/><path style=" stroke:none;fill-rule:nonzero;fill:#f59e0b;fill-opacity:1;" d="M 21.347656 21.835938 L 21.34375 21.835938 L 14.394531 21.886719 C 14.136719 21.886719 13.925781 22.097656 13.929688 22.359375 C 13.929688 22.617188 14.140625 22.824219 14.398438 22.824219 L 14.402344 22.824219 L 21.351562 22.773438 C 21.609375 22.773438 21.820312 22.5625 21.820312 22.300781 C 21.816406 22.042969 21.605469 21.835938 21.347656 21.835938 Z M 21.347656 21.835938 "/><path style=" stroke:none;fill-rule:nonzero;fill:#f59e0b;fill-opacity:1;" d="M 14.71875 20.210938 L 14.722656 20.210938 C 14.984375 20.210938 15.191406 20 15.191406 19.738281 L 15.183594 18.609375 C 15.179688 18.351562 14.96875 18.140625 14.710938 18.140625 L 14.707031 18.140625 C 14.449219 18.144531 14.238281 18.355469 14.242188 18.617188 L 14.25 19.746094 C 14.25 20.003906 14.460938 20.210938 14.71875 20.210938 Z M 14.71875 20.210938 "/><path style=" stroke:none;fill-rule:nonzero;fill:#f59e0b;fill-opacity:1;" d="M 12.617188 18.15625 L 12.613281 18.15625 C 12.355469 18.160156 12.144531 18.371094 12.148438 18.632812 L 12.15625 19.761719 C 12.15625 20.019531 12.367188 20.226562 12.625 20.226562 L 12.628906 20.226562 C 12.890625 20.226562 13.097656 20.015625 13.097656 19.753906 L 13.089844 18.625 C 13.085938 18.367188 12.875 18.15625 12.617188 18.15625 Z M 12.617188 18.15625 "/><path style=" stroke:none;fill-rule:nonzero;fill:#f59e0b;fill-opacity:1;" d="M 23.085938 18.078125 L 23.082031 18.078125 C 22.824219 18.082031 22.613281 18.292969 22.617188 18.554688 L 22.625 19.683594 C 22.628906 19.941406 22.835938 20.152344 23.09375 20.152344 L 23.097656 20.152344 C 23.359375 20.148438 23.566406 19.9375 23.566406 19.675781 L 23.558594 18.546875 C 23.554688 18.289062 23.34375 18.078125 23.085938 18.078125 Z M 23.085938 18.078125 "/><path style=" stroke:none;fill-rule:nonzero;fill:#f59e0b;fill-opacity:1;" d="M 16.8125 20.199219 L 16.816406 20.199219 C 17.078125 20.195312 17.285156 19.984375 17.285156 19.722656 L 17.277344 18.59375 C 17.273438 18.335938 17.0625 18.125 16.804688 18.125 L 16.800781 18.125 C 16.542969 18.128906 16.332031 18.339844 16.335938 18.601562 L 16.34375 19.730469 C 16.34375 19.988281 16.554688 20.199219 16.8125 20.199219 Z M 16.8125 20.199219 "/><path style=" stroke:none;fill-rule:nonzero;fill:#f59e0b;fill-opacity:1;" d="M 18.90625 20.183594 L 18.910156 20.183594 C 19.171875 20.179688 19.378906 19.96875 19.378906 19.707031 L 19.371094 18.578125 C 19.367188 18.320312 19.15625 18.109375 18.898438 18.109375 L 18.894531 18.109375 C 18.636719 18.113281 18.425781 18.324219 18.429688 18.585938 L 18.4375 19.714844 C 18.4375 19.972656 18.648438 20.183594 18.90625 20.183594 Z M 18.90625 20.183594 "/><path style=" stroke:none;fill-rule:nonzero;fill:#f59e0b;fill-opacity:1;" d="M 21 20.167969 L 21.003906 20.167969 C 21.265625 20.164062 21.472656 19.953125 21.472656 19.691406 L 21.464844 18.5625 C 21.460938 18.304688 21.25 18.09375 20.992188 18.09375 L 20.988281 18.09375 C 20.730469 18.097656 20.519531 18.308594 20.523438 18.570312 L 20.53125 19.699219 C 20.53125 19.957031 20.742188 20.167969 21 20.167969 Z M 21 20.167969 "/></g></svg>