<svg xmlns="http://www.w3.org/2000/svg" xmlns:xlink="http://www.w3.org/1999/xlink" width="60" zoomAndPan="magnify" viewBox="0 0 45 44.999999" height="60" preserveAspectRatio="xMidYMid meet" version="1.2"><defs><clipPath id="51d322f24c"><path d="M 19 4.5 L 38 4.5 L 38 23 L 19 23 Z M 19 4.5 "/></clipPath><clipPath id="013326dc37"><path d="M 0 22 L 44 22 L 44 40.5 L 0 40.5 Z M 0 22 "/></clipPath></defs><g id="90ee7e6601"><g clip-rule="nonzero" clip-path="url(#51d322f24c)"><path style=" stroke:none;fill-rule:nonzero;fill:#f59e0b;fill-opacity:1;" d="M 28.453125 22.003906 C 33.28125 22.003906 37.207031 18.078125 37.207031 13.253906 C 37.207031 8.425781 33.28125 4.5 28.453125 4.5 C 23.628906 4.5 19.703125 8.425781 19.703125 13.253906 C 19.703125 18.078125 23.628906 22.003906 28.453125 22.003906 Z M 21.15625 13.253906 C 21.15625 9.230469 24.429688 5.957031 28.453125 5.957031 C 32.476562 5.957031 35.75 9.230469 35.75 13.253906 C 35.75 17.277344 32.476562 20.550781 28.453125 20.550781 C 24.429688 20.550781 21.15625 17.277344 21.15625 13.253906 Z M 21.15625 13.253906 "/></g><path style=" stroke:none;fill-rule:nonzero;fill:#f59e0b;fill-opacity:1;" d="M 26.316406 17.261719 C 26.695312 17.632812 27.199219 17.890625 27.75 18.003906 L 27.746094 18.777344 C 27.742188 19.167969 28.058594 19.488281 28.449219 19.492188 L 28.453125 19.492188 C 28.839844 19.492188 29.160156 19.175781 29.164062 18.789062 L 29.167969 18.003906 C 29.71875 17.886719 30.222656 17.625 30.597656 17.257812 C 31.035156 16.828125 31.273438 16.28125 31.273438 15.710938 L 31.273438 15.398438 C 31.273438 14.644531 30.847656 13.933594 30.136719 13.492188 L 27.613281 11.929688 C 27.316406 11.746094 27.148438 11.488281 27.148438 11.222656 L 27.148438 10.734375 C 27.148438 10.496094 27.277344 10.269531 27.519531 10.089844 C 27.777344 9.898438 28.128906 9.792969 28.503906 9.792969 C 28.878906 9.792969 29.226562 9.898438 29.488281 10.089844 C 29.726562 10.269531 29.859375 10.496094 29.859375 10.734375 L 29.859375 11.285156 C 29.859375 11.675781 30.175781 11.996094 30.566406 11.996094 C 30.957031 11.996094 31.273438 11.675781 31.273438 11.285156 L 31.273438 10.734375 C 31.273438 9.65625 30.417969 8.722656 29.210938 8.453125 L 29.210938 7.722656 C 29.210938 7.332031 28.894531 7.015625 28.503906 7.015625 C 28.113281 7.015625 27.792969 7.332031 27.792969 7.722656 L 27.792969 8.453125 C 26.585938 8.722656 25.730469 9.65625 25.730469 10.734375 L 25.730469 11.222656 C 25.730469 11.976562 26.15625 12.691406 26.867188 13.132812 L 29.390625 14.695312 C 29.6875 14.878906 29.859375 15.136719 29.859375 15.398438 L 29.859375 15.710938 C 29.859375 15.949219 29.726562 16.179688 29.488281 16.355469 C 29.226562 16.550781 28.878906 16.65625 28.503906 16.65625 L 28.40625 16.65625 C 28.03125 16.65625 27.683594 16.550781 27.421875 16.355469 C 27.183594 16.179688 27.050781 15.949219 27.050781 15.710938 L 27.050781 15.410156 C 27.050781 15.019531 26.734375 14.699219 26.34375 14.699219 C 25.953125 14.699219 25.636719 15.019531 25.636719 15.410156 L 25.636719 15.710938 C 25.636719 16.28125 25.878906 16.832031 26.316406 17.261719 Z M 26.316406 17.261719 "/><g clip-rule="nonzero" clip-path="url(#013326dc37)"><path style=" stroke:none;fill-rule:nonzero;fill:#f59e0b;fill-opacity:1;" d="M 43.21875 24.109375 C 42.230469 23.011719 40.65625 22.902344 39.546875 23.851562 L 33.042969 29.109375 C 33.046875 29.046875 33.046875 28.980469 33.046875 28.917969 C 33.023438 27.347656 31.789062 26.074219 30.304688 26.074219 L 23.085938 26.074219 C 22.667969 26.074219 22.277344 25.832031 22.035156 25.429688 C 21.984375 25.34375 21.910156 25.273438 21.832031 25.210938 C 18.875 22.878906 14.902344 22.570312 11.503906 24.082031 L 10.246094 24.640625 L 7.722656 24.640625 L 7.722656 23.488281 C 7.722656 23.074219 7.386719 22.742188 6.972656 22.742188 L 0.75 22.742188 C 0.335938 22.742188 0 23.074219 0 23.488281 L 0 37.347656 C 0 37.761719 0.335938 38.097656 0.75 38.097656 L 6.972656 38.097656 C 7.386719 38.097656 7.722656 37.761719 7.722656 37.347656 L 7.722656 36.160156 L 10.289062 36.160156 L 19.175781 38.980469 C 21.191406 39.726562 22.882812 40.097656 24.570312 40.097656 C 25.925781 40.097656 27.28125 39.859375 28.800781 39.378906 C 28.941406 39.335938 29.082031 39.289062 29.226562 39.242188 C 29.535156 39.125 29.835938 38.984375 30.125 38.820312 C 30.359375 38.6875 30.585938 38.535156 30.796875 38.363281 L 43.214844 28.230469 C 43.257812 28.199219 43.292969 28.160156 43.328125 28.117188 C 44.25 26.964844 44.203125 25.203125 43.21875 24.109375 Z M 6.222656 36.597656 L 1.5 36.597656 L 1.5 24.238281 L 6.222656 24.238281 Z M 42.199219 27.125 L 30.617188 36.574219 C 29.605469 37.402344 28.421875 37.988281 27.148438 38.285156 C 24.632812 38.871094 22.554688 38.632812 19.679688 37.570312 C 19.667969 37.566406 19.660156 37.5625 19.648438 37.558594 L 10.632812 34.695312 C 10.558594 34.671875 10.484375 34.660156 10.40625 34.660156 L 7.722656 34.660156 L 7.722656 26.140625 L 10.40625 26.140625 C 10.511719 26.140625 10.613281 26.121094 10.710938 26.078125 L 12.113281 25.453125 C 14.976562 24.179688 18.230469 24.515625 20.839844 26.34375 C 21.363281 27.117188 22.191406 27.574219 23.085938 27.574219 L 30.304688 27.574219 C 30.976562 27.574219 31.535156 28.1875 31.550781 28.941406 C 31.554688 29.359375 31.40625 29.753906 31.136719 30.027344 C 31.003906 30.164062 30.847656 30.261719 30.683594 30.316406 C 30.472656 30.351562 30.253906 30.367188 30.035156 30.367188 L 22.007812 30.367188 C 21.59375 30.367188 21.253906 30.695312 21.246094 31.105469 C 21.242188 31.523438 21.578125 31.867188 21.996094 31.867188 L 30.367188 31.867188 C 30.59375 31.867188 30.8125 31.835938 31.027344 31.777344 C 31.960938 31.609375 32.84375 31.203125 33.617188 30.574219 L 40.496094 25.011719 C 40.503906 25.003906 40.507812 25 40.515625 24.996094 C 41 24.578125 41.667969 24.625 42.105469 25.113281 C 42.585938 25.648438 42.625 26.535156 42.199219 27.125 Z M 42.199219 27.125 "/></g></g></svg>